<svg xmlns="http://www.w3.org/2000/svg" width="68.385" height="96.962" viewBox="0 0 68.385 96.962">
  <g id="Group_47" data-name="Group 47" transform="translate(-278.726 -231.456)">
    <g id="Group_46" data-name="Group 46" transform="translate(278.982 231.596)">
      <path id="Path_115" data-name="Path 115" d="M325.028,246.8c-2.433,2.885-1.672,3.824-2.131,1.532-.142-.717-1.963-.02-2.209.33-1.611,2.286-2.746,3.008-4.522,5.068,2.653-2.976-4.092,7.953-3.817,4.666.072-.882-2.039-.193-2.29.337-1.017,2.032-1.926,4.11-2.774,6.216a75.936,75.936,0,0,0,.106-7.936c-.025-.693-1.992,0-2.208.331-2.329,3.574-4.867,7.4-7.392,11.415-.113-.571-.234-1.14-.375-1.7-3.783-15.094-19.56,2.691-18.369,11.037.09.648,2.406.134,2.3-.617-.546-3.854,6.671-17.156,11.075-14.35,2.49,1.586,3.223,5.356,3.51,8.63-9.81,16.051-18.608,34.726-13.164,52.233.231.756,1.895-.02,2.208-.331,6.183-6.125,8.331-16.945,10.361-25.02,2.112-8.4,3.946-17.954,2.923-26.833.432-.743.864-1.486,1.3-2.223,2.016-3.423,4.172-6.763,6.322-10.1-2.664,4.135-1.769,13.841-2.639,19.1-.126.768,2.144.33,2.29-.337a102.223,102.223,0,0,1,3.435-12.147,18.278,18.278,0,0,0,.985-4.085,24.152,24.152,0,0,0,.1,2.446c.061.732,1.974-.037,2.209-.33,2.417-3.028,4.108-8.578,6.712-10.951,2.414-2.2,1.75-3.579,2.241-1.125.14.705,1.969.034,2.209-.331,3.11-4.738,2.1,1.785,3.372,5.293.255.7,2.532.015,2.3-.617a32.707,32.707,0,0,1-1.862-9.925C327.2,245.738,325.26,246.529,325.028,246.8ZM288.875,312.75c-.677,1.863-1.491,3.667-2.326,5.461a27.989,27.989,0,0,1-2.226,3.845q-1.647,2.432-.081-1.323c-2.71-8.719.426-18.79,3.327-27.04a115.864,115.864,0,0,1,8.575-18.2C296.692,287.923,293.077,301.194,288.875,312.75Z" transform="translate(-278.982 -227.751)" fill="#b82437" stroke="#fff" stroke-miterlimit="10" stroke-width="0.5"/>
      <path id="Path_116" data-name="Path 116" d="M324.626,232.244c-5.536-1.92-11.272.6-14.485,5.229-.626.9,1.7.727,2.151.082,4.909-7.068,14.306-4.947,18.183,2a10.34,10.34,0,0,1-.3,10c-.976,1.829-4.707,6.8-7.038,4.3-1.852-1.983,1.68-4.563,2.965-5.217,1.417-.723.114-1.539-.926-1.009-2.14,1.091-4.214,2.46-4.726,4.963a2.956,2.956,0,0,0,2.854,3.337c5.893.268,10.407-6.628,10.67-11.909C334.256,238.374,329.573,233.961,324.626,232.244Z" transform="translate(-270.789 -231.596)" fill="#b82437" stroke="#fff" stroke-miterlimit="10" stroke-width="0.25"/>
      <path id="Path_117" data-name="Path 117" d="M332.662,236.456c0-1-2.305-.512-2.305.276a67.8,67.8,0,0,0,.761,12.316c.152.825,2.463.26,2.3-.617A66,66,0,0,1,332.662,236.456Z" transform="translate(-265.426 -230.462)" fill="#b82437" stroke="#fff" stroke-miterlimit="10" stroke-width="0.25"/>
    </g>
    <path id="Path_118" data-name="Path 118" d="M332.551,232.123c-1.168.009-2.588.292-2.8,1.641-.171,1.087,2.171.741,2.323-.212l-.4.142c.209-.015.421-.02.631-.018,1.265-.008,1.81-1.562.241-1.552" transform="translate(13.394 0.139)" fill="#b82437"/>
  </g>
</svg>
