<svg id="Group_100" data-name="Group 100" xmlns="http://www.w3.org/2000/svg" width="58.651" height="58.651" viewBox="0 0 58.651 58.651">
  <g id="Group_28" data-name="Group 28" transform="translate(0)">
    <g id="Group_27" data-name="Group 27">
      <rect id="Rectangle_20" data-name="Rectangle 20" width="58.651" height="58.651" rx="4.192" fill="#469434"/>
    </g>
  </g>
  <path id="Path_86" data-name="Path 86" d="M1021.2,451.078a4.056,4.056,0,0,1-2.969-1.674c-1.031-1.485-.7-3.84-.755-4.7s-.012-11.859-.012-11.859.289-1.192,1.3-1.161a1.161,1.161,0,0,1,1.159,1.214c0,.3-.029,5.756-.029,5.756l.806.026-.1-9.374a1.189,1.189,0,0,1,1.281-1.271c1.361,0,1.157,1.161,1.157,1.161l.012,9.242.744.024V428.031a1.195,1.195,0,0,1,2.363-.108V438.65l.755.136v-7a1.236,1.236,0,0,1,1.21-1.218,1.094,1.094,0,0,1,1.18,1.053v13.134l3.246-3.191s1.009-.726,1.637.081a1.6,1.6,0,0,1,.2,1.649l-6.264,6.7a4.764,4.764,0,0,1-3.246,1.08C1022.662,451.1,1021.2,451.078,1021.2,451.078Z" transform="translate(-995.03 -408.803)" fill="none" stroke="#fff" stroke-linecap="round" stroke-linejoin="round" stroke-width="0.75"/>
  <g id="Group_29" data-name="Group 29" transform="translate(6.535 12.063)">
    <path id="Path_87" data-name="Path 87" d="M1017.625,426.014s-10.192,11.509,0,26.346" transform="translate(-1006.071 -421.835)" fill="none" stroke="#fff" stroke-linecap="round" stroke-linejoin="round" stroke-width="2"/>
    <path id="Path_88" data-name="Path 88" d="M1015,423.959s-12.055,15.689,0,34.7" transform="translate(-1009.642 -423.959)" fill="none" stroke="#fff" stroke-linecap="round" stroke-linejoin="round" stroke-width="2"/>
    <path id="Path_89" data-name="Path 89" d="M1026.885,426.014s10.189,11.509,0,26.346" transform="translate(-991.815 -421.835)" fill="none" stroke="#fff" stroke-linecap="round" stroke-linejoin="round" stroke-width="2"/>
    <path id="Path_90" data-name="Path 90" d="M1029.931,423.959s12.052,15.689,0,34.7" transform="translate(-988.666 -423.959)" fill="none" stroke="#fff" stroke-linecap="round" stroke-linejoin="round" stroke-width="2"/>
  </g>
</svg>
