<svg xmlns="http://www.w3.org/2000/svg" width="139" height="33.33" viewBox="0 0 139 33.33">
  <g id="Group_189" data-name="Group 189" transform="translate(-624.474 -555.626)">
    <path id="Path_78" data-name="Path 78" d="M641.81,588.955,630.2,568.5v20.456h-5.724v-33.33h5.105l11.612,20.411V555.626h5.725v33.33Z" transform="translate(0 0)" fill="#2593e5"/>
    <path id="Path_79" data-name="Path 79" d="M657.318,583.1a8.625,8.625,0,0,1-6.853,3.166,8.82,8.82,0,0,1-6.889-3.166c-2.676-3.124-2.5-7.911-2.5-11.116V570.4c0-5.761.534-8.073,2.5-10.345a9.042,9.042,0,0,1,13.742,0c1.784,2.069,2.534,4.828,2.534,9.493v2.029C659.852,575.718,660.03,579.9,657.318,583.1Zm-3.676-19.636a3.887,3.887,0,0,0-3.177-1.542,3.954,3.954,0,0,0-3.211,1.542c-1.142,1.42-1.214,4.138-1.214,7.708,0,3.531-.144,6.979,1.214,8.521a4.18,4.18,0,0,0,3.211,1.54,3.89,3.89,0,0,0,3.177-1.54c1.034-1.34,1.25-2.76,1.25-8.643C654.891,566.306,654.64,564.724,653.641,563.466Z" transform="translate(9.303 0.711)" fill="#2593e5"/>
    <path id="Path_80" data-name="Path 80" d="M668.283,583.666l-8.9-15.68v15.68h-4.388V558.12h3.913l8.9,15.644V558.12H672.2v25.546Z" transform="translate(17.102 1.398)" fill="#2593e5"/>
    <path id="Path_81" data-name="Path 81" d="M668.149,581.409V559.185h3.817v22.224Z" transform="translate(24.474 1.994)" fill="#2593e5"/>
    <path id="Path_82" data-name="Path 82" d="M684.786,583.666,680.4,573.477h-3.155v10.189h-4.388V558.12h8.805c4.294,0,7.293,3.229,7.293,7.822a7.308,7.308,0,0,1-1.895,5.166,5.86,5.86,0,0,1-2.211,1.543l5.02,11.015Zm-3.411-14.352a3.378,3.378,0,0,0,0-6.745h-4.134v6.745Z" transform="translate(27.11 1.398)" fill="#2593e5"/>
    <path id="Path_83" data-name="Path 83" d="M700.986,583.1a8.625,8.625,0,0,1-6.853,3.166,8.822,8.822,0,0,1-6.889-3.166c-2.676-3.124-2.5-7.911-2.5-11.116V570.4c0-5.761.534-8.073,2.5-10.345a9.042,9.042,0,0,1,13.742,0c1.783,2.069,2.534,4.828,2.534,9.493v2.029C703.52,575.718,703.7,579.9,700.986,583.1Zm-3.676-19.636a3.887,3.887,0,0,0-3.177-1.542,3.953,3.953,0,0,0-3.211,1.542c-1.142,1.42-1.214,4.138-1.214,7.708,0,3.531-.144,6.979,1.214,8.521a4.182,4.182,0,0,0,3.211,1.54,3.89,3.89,0,0,0,3.177-1.54c1.034-1.34,1.25-2.76,1.25-8.643C698.559,566.306,698.308,564.724,697.309,563.466Z" transform="translate(33.773 0.711)" fill="#2593e5"/>
    <path id="Path_84" data-name="Path 84" d="M716.509,588.955,704.9,568.5v20.456h-5.723v-33.33h5.107l11.611,20.411V555.626h5.725v33.33Z" transform="translate(41.859 0)" fill="#2593e5"/>
  </g>
</svg>
