<svg xmlns="http://www.w3.org/2000/svg" width="13.939" height="22.083" viewBox="0 0 13.939 22.083">
  <path id="Path_120" data-name="Path 120" d="M12.686,11.2V5.716A5.748,5.748,0,0,0,6.969,0,5.816,5.816,0,0,0,1.175,5.716V11.2A6.615,6.615,0,0,0,0,15.113a6.969,6.969,0,0,0,13.939,0A8.266,8.266,0,0,0,12.686,11.2ZM6.969,1.566a4.178,4.178,0,0,1,4.15,4.15V9.553a6.912,6.912,0,0,0-4.15-1.331,7.477,7.477,0,0,0-4.15,1.331V5.716A4.178,4.178,0,0,1,6.969,1.566Zm.7,14.017v3.211H6.186V15.583A1.428,1.428,0,0,1,5.4,14.252a1.54,1.54,0,0,1,1.488-1.488,1.54,1.54,0,0,1,1.488,1.488A1.256,1.256,0,0,1,7.674,15.583Z" fill="rgba(0,0,0,0.3)"/>
</svg>
