<svg xmlns="http://www.w3.org/2000/svg" width="17.743" height="17.743" viewBox="0 0 17.743 17.743">
  <path id="headset" d="M158.65,270.3v-.018a6.279,6.279,0,1,0-12.557,0v.018c-.871.089-2.093.519-2.093,1.726v2.093c0,.956,1.792,1.565,2.342,1.729a.349.349,0,0,0,.449-.334v-5.232a5.581,5.581,0,1,1,11.162,0v5.232a.349.349,0,0,0,.449.334c.063-.018.144-.044.234-.074-.142,2.329-2.155,3.453-4.239,3.564a1.046,1.046,0,0,0-.979-.685h-2.093a1.046,1.046,0,1,0,0,2.093h2.093a1.044,1.044,0,0,0,.986-.711c2.433-.126,4.943-1.558,4.943-4.521a.1.1,0,0,0,0-.015c.671-.3,1.4-.771,1.4-1.38v-2.093C160.743,270.816,159.522,270.386,158.65,270.3Z" transform="translate(-143.5 -263.5)" stroke="#000" stroke-width="1"/>
</svg>
