<svg id="Group_43" data-name="Group 43" xmlns="http://www.w3.org/2000/svg" width="59" height="59" viewBox="0 0 59 59">
  <rect id="Rectangle_23" data-name="Rectangle 23" width="59" height="59" rx="4.192" transform="translate(0 0)" fill="#469434"/>
  <g id="Group_39" data-name="Group 39" transform="translate(23.296 7.318)">
    <path id="Path_110" data-name="Path 110" d="M831.655,421.7c-9.384,11.79-10.984,24.125,0,24.125S840.922,433.691,831.655,421.7Z" transform="translate(-824.005 -421.702)" fill="#469434" stroke="#fff" stroke-miterlimit="22.926" stroke-width="0.5" fill-rule="evenodd"/>
    <path id="Path_111" data-name="Path 111" d="M830.916,422.726l0,0c6.18,9.7,5.475,19.022-1.045,19.022-2.856,0-4.6-1.209-5.385-3.2.45,2.9,2.492,4.763,6.432,4.763C840.292,443.318,838.827,432.959,830.916,422.726Z" transform="translate(-823.503 -420.631)" fill="#fff" fill-rule="evenodd"/>
    <path id="Path_112" data-name="Path 112" d="M827.066,426.7c-1.733,2.525-2.32,5.166-.681,5.166S828.111,429.27,827.066,426.7Z" transform="translate(-822.528 -416.473)" fill="#fff" fill-rule="evenodd"/>
  </g>
  <path id="Path_113" data-name="Path 113" d="M815.665,445.28c7.7,0,15.405-6.7,23.11-6.7,7.807,0,15.616,6.7,23.425,6.7v2.737c-7.809,0-15.618-6.7-23.425-6.7-7.7,0-15.409,6.7-23.11,6.7Z" transform="translate(-809.431 -396.732)" fill="#fff" stroke="#469434" stroke-miterlimit="22.926" stroke-width="0.567" fill-rule="evenodd"/>
  <g id="Group_42" data-name="Group 42" transform="translate(6.767 41.864)">
    <g id="Group_41" data-name="Group 41">
      <line id="Line_24" data-name="Line 24" x2="1.595" y2="2.588" transform="translate(0 6.673)" fill="none" stroke="#469434" stroke-miterlimit="22.926" stroke-width="0.5"/>
      <line id="Line_25" data-name="Line 25" x2="1.492" y2="2.42" transform="translate(1.978 6.466)" fill="none" stroke="#469434" stroke-miterlimit="22.926" stroke-width="0.5"/>
      <line id="Line_26" data-name="Line 26" x2="1.424" y2="2.312" transform="translate(3.832 6.058)" fill="none" stroke="#469434" stroke-miterlimit="22.926" stroke-width="0.5"/>
      <line id="Line_27" data-name="Line 27" x2="1.378" y2="2.237" transform="translate(5.605 5.517)" fill="none" stroke="#469434" stroke-miterlimit="22.926" stroke-width="0.5"/>
      <line id="Line_28" data-name="Line 28" x2="1.349" y2="2.189" transform="translate(7.321 4.889)" fill="none" stroke="#469434" stroke-miterlimit="22.926" stroke-width="0.5"/>
      <line id="Line_29" data-name="Line 29" x2="1.333" y2="2.165" transform="translate(9.005 4.203)" fill="none" stroke="#469434" stroke-miterlimit="22.926" stroke-width="0.5"/>
      <line id="Line_30" data-name="Line 30" x2="1.328" y2="2.159" transform="translate(10.669 3.487)" fill="none" stroke="#469434" stroke-miterlimit="22.926" stroke-width="0.5"/>
      <line id="Line_31" data-name="Line 31" x2="1.338" y2="2.171" transform="translate(12.33 2.767)" fill="none" stroke="#469434" stroke-miterlimit="22.926" stroke-width="0.5"/>
      <line id="Line_32" data-name="Line 32" x2="1.359" y2="2.204" transform="translate(14.003 2.066)" fill="none" stroke="#469434" stroke-miterlimit="22.926" stroke-width="0.5"/>
      <line id="Line_33" data-name="Line 33" x2="1.394" y2="2.263" transform="translate(15.703 1.409)" fill="none" stroke="#469434" stroke-miterlimit="22.926" stroke-width="0.5"/>
      <line id="Line_34" data-name="Line 34" x2="1.448" y2="2.348" transform="translate(17.45 0.827)" fill="none" stroke="#469434" stroke-miterlimit="22.926" stroke-width="0.5"/>
      <line id="Line_35" data-name="Line 35" x2="1.525" y2="2.477" transform="translate(19.266 0.357)" fill="none" stroke="#469434" stroke-miterlimit="22.926" stroke-width="0.5"/>
      <line id="Line_36" data-name="Line 36" x2="1.643" y2="2.669" transform="translate(21.183 0.054)" fill="none" stroke="#469434" stroke-miterlimit="22.926" stroke-width="0.5"/>
      <line id="Line_37" data-name="Line 37" x2="1.802" y2="2.929" transform="translate(23.257)" fill="none" stroke="#469434" stroke-miterlimit="22.926" stroke-width="0.5"/>
      <line id="Line_38" data-name="Line 38" x2="1.978" y2="3.21" transform="translate(25.53 0.276)" fill="none" stroke="#469434" stroke-miterlimit="22.926" stroke-width="0.5"/>
      <line id="Line_39" data-name="Line 39" x2="2.137" y2="3.469" transform="translate(28.021 0.902)" fill="none" stroke="#469434" stroke-miterlimit="22.926" stroke-width="0.5"/>
      <line id="Line_40" data-name="Line 40" x2="2.251" y2="3.655" transform="translate(30.706 1.846)" fill="none" stroke="#469434" stroke-miterlimit="22.926" stroke-width="0.5"/>
      <line id="Line_41" data-name="Line 41" x2="2.285" y2="3.712" transform="translate(33.528 3.009)" fill="none" stroke="#469434" stroke-miterlimit="22.926" stroke-width="0.5"/>
      <line id="Line_42" data-name="Line 42" x2="2.225" y2="3.616" transform="translate(36.379 4.223)" fill="none" stroke="#469434" stroke-miterlimit="22.926" stroke-width="0.5"/>
      <line id="Line_43" data-name="Line 43" x2="2.096" y2="3.403" transform="translate(39.148 5.3)" fill="none" stroke="#469434" stroke-miterlimit="22.926" stroke-width="0.5"/>
      <line id="Line_44" data-name="Line 44" x2="1.928" y2="3.135" transform="translate(41.748 6.101)" fill="none" stroke="#469434" stroke-miterlimit="22.926" stroke-width="0.5"/>
      <g id="Group_40" data-name="Group 40" transform="translate(44.137 6.565)">
        <line id="Line_45" data-name="Line 45" x2="1.757" y2="2.854" fill="none" stroke="#469434" stroke-miterlimit="22.926" stroke-width="0.5"/>
      </g>
    </g>
  </g>
  <path id="Path_114" data-name="Path 114" d="M815.665,442.931c7.7,0,15.405-6.7,23.11-6.7,7.807,0,15.616,6.7,23.425,6.7v2.735c-7.809,0-15.618-6.7-23.425-6.7-7.7,0-15.409,6.7-23.11,6.7Z" transform="translate(-809.431 -399.193)" fill="#fff" stroke="#469434" stroke-miterlimit="22.926" stroke-width="0.567" fill-rule="evenodd"/>
</svg>
