<svg id="Group_38" data-name="Group 38" xmlns="http://www.w3.org/2000/svg" width="59" height="59" viewBox="0 0 59 59">
  <rect id="Rectangle_22" data-name="Rectangle 22" width="59" height="59" rx="4.192" transform="translate(0 0)" fill="#469434"/>
  <path id="Path_106" data-name="Path 106" d="M909.359,614.677c2.361-2.255.933-4.227-.409-6.08-1.549-2.136-3-4.132.487-6.328a.7.7,0,0,1,.761.035.319.319,0,0,1-.051.548c-2.842,1.792-1.586,3.529-.239,5.387,1.5,2.064,3.085,4.257.315,6.9a.683.683,0,0,1-.753.078.322.322,0,0,1-.11-.542Zm12.592,0c2.359-2.255.931-4.227-.413-6.08-1.547-2.136-2.993-4.132.487-6.328a.7.7,0,0,1,.761.035.319.319,0,0,1-.049.548c-2.844,1.792-1.584,3.529-.239,5.387,1.5,2.064,3.085,4.257.315,6.9a.687.687,0,0,1-.755.078.321.321,0,0,1-.106-.542Zm-6.608.542a.686.686,0,0,0,.755-.078c2.77-2.645,1.178-4.839-.315-6.9-1.346-1.858-2.6-3.595.239-5.387a.319.319,0,0,0,.049-.548.7.7,0,0,0-.761-.035c-3.482,2.2-2.034,4.192-.485,6.328,1.34,1.854,2.77,3.826.409,6.08A.323.323,0,0,0,915.343,615.219Z" transform="translate(-886.475 -596.889)" fill="#fff" fill-rule="evenodd"/>
  <path id="Path_107" data-name="Path 107" d="M909.359,630.129c2.361-2.254.933-4.227-.409-6.08-1.549-2.136-3-4.131.487-6.328a.7.7,0,0,1,.761.035.319.319,0,0,1-.051.548c-2.842,1.792-1.586,3.529-.239,5.387,1.5,2.064,3.085,4.258.315,6.9a.683.683,0,0,1-.753.078.322.322,0,0,1-.11-.542Zm12.592,0c2.359-2.254.931-4.227-.413-6.08-1.547-2.136-2.993-4.131.487-6.328a.7.7,0,0,1,.761.035.319.319,0,0,1-.049.548c-2.844,1.792-1.584,3.529-.239,5.387,1.5,2.064,3.085,4.258.315,6.9a.687.687,0,0,1-.755.078.321.321,0,0,1-.106-.542Zm-6.608.542a.686.686,0,0,0,.755-.078c2.77-2.645,1.178-4.838-.315-6.9-1.346-1.858-2.6-3.595.239-5.387a.318.318,0,0,0,.049-.548.7.7,0,0,0-.761-.035c-3.482,2.2-2.034,4.192-.485,6.328,1.34,1.854,2.77,3.826.409,6.08A.323.323,0,0,0,915.343,630.672Z" transform="translate(-886.475 -580.729)" fill="#fff" fill-rule="evenodd"/>
  <path id="Path_108" data-name="Path 108" d="M900.453,619.581c7.7,0,15.407-6.7,23.11-6.7,7.809,0,15.618,6.7,23.427,6.7v2.735c-7.809,0-15.618-6.7-23.427-6.7-7.7,0-15.407,6.7-23.11,6.7Z" transform="translate(-893.625 -585.692)" fill="#fff" stroke="#469434" stroke-miterlimit="22.926" stroke-width="0.567" fill-rule="evenodd"/>
  <g id="Group_37" data-name="Group 37" transform="translate(7.363 27.203)">
    <g id="Group_36" data-name="Group 36">
      <line id="Line_2" data-name="Line 2" x2="1.594" y2="2.587" transform="translate(0 6.673)" fill="none" stroke="#469434" stroke-miterlimit="22.926" stroke-width="0.5"/>
      <line id="Line_3" data-name="Line 3" x2="1.493" y2="2.422" transform="translate(1.978 6.464)" fill="none" stroke="#469434" stroke-miterlimit="22.926" stroke-width="0.5"/>
      <line id="Line_4" data-name="Line 4" x2="1.424" y2="2.312" transform="translate(3.832 6.058)" fill="none" stroke="#469434" stroke-miterlimit="22.926" stroke-width="0.5"/>
      <line id="Line_5" data-name="Line 5" x2="1.378" y2="2.237" transform="translate(5.605 5.518)" fill="none" stroke="#469434" stroke-miterlimit="22.926" stroke-width="0.5"/>
      <line id="Line_6" data-name="Line 6" x2="1.349" y2="2.191" transform="translate(7.321 4.887)" fill="none" stroke="#469434" stroke-miterlimit="22.926" stroke-width="0.5"/>
      <line id="Line_7" data-name="Line 7" x2="1.333" y2="2.165" transform="translate(9.005 4.202)" fill="none" stroke="#469434" stroke-miterlimit="22.926" stroke-width="0.5"/>
      <line id="Line_8" data-name="Line 8" x2="1.328" y2="2.161" transform="translate(10.669 3.486)" fill="none" stroke="#469434" stroke-miterlimit="22.926" stroke-width="0.5"/>
      <line id="Line_9" data-name="Line 9" x2="1.338" y2="2.173" transform="translate(12.33 2.767)" fill="none" stroke="#469434" stroke-miterlimit="22.926" stroke-width="0.5"/>
      <line id="Line_10" data-name="Line 10" x2="1.357" y2="2.206" transform="translate(14.004 2.065)" fill="none" stroke="#469434" stroke-miterlimit="22.926" stroke-width="0.5"/>
      <line id="Line_11" data-name="Line 11" x2="1.393" y2="2.264" transform="translate(15.703 1.408)" fill="none" stroke="#469434" stroke-miterlimit="22.926" stroke-width="0.5"/>
      <line id="Line_12" data-name="Line 12" x2="1.447" y2="2.348" transform="translate(17.45 0.827)" fill="none" stroke="#469434" stroke-miterlimit="22.926" stroke-width="0.5"/>
      <line id="Line_13" data-name="Line 13" x2="1.525" y2="2.477" transform="translate(19.266 0.356)" fill="none" stroke="#469434" stroke-miterlimit="22.926" stroke-width="0.5"/>
      <line id="Line_14" data-name="Line 14" x2="1.643" y2="2.668" transform="translate(21.183 0.054)" fill="none" stroke="#469434" stroke-miterlimit="22.926" stroke-width="0.5"/>
      <line id="Line_15" data-name="Line 15" x2="1.804" y2="2.929" transform="translate(23.256)" fill="none" stroke="#469434" stroke-miterlimit="22.926" stroke-width="0.5"/>
      <line id="Line_16" data-name="Line 16" x2="1.976" y2="3.21" transform="translate(25.53 0.276)" fill="none" stroke="#469434" stroke-miterlimit="22.926" stroke-width="0.5"/>
      <line id="Line_17" data-name="Line 17" x2="2.135" y2="3.471" transform="translate(28.021 0.9)" fill="none" stroke="#469434" stroke-miterlimit="22.926" stroke-width="0.5"/>
      <line id="Line_18" data-name="Line 18" x2="2.249" y2="3.657" transform="translate(30.707 1.844)" fill="none" stroke="#469434" stroke-miterlimit="22.926" stroke-width="0.5"/>
      <line id="Line_19" data-name="Line 19" x2="2.285" y2="3.714" transform="translate(33.528 3.007)" fill="none" stroke="#469434" stroke-miterlimit="22.926" stroke-width="0.5"/>
      <line id="Line_20" data-name="Line 20" x2="2.227" y2="3.616" transform="translate(36.379 4.223)" fill="none" stroke="#469434" stroke-miterlimit="22.926" stroke-width="0.5"/>
      <line id="Line_21" data-name="Line 21" x2="2.096" y2="3.403" transform="translate(39.148 5.3)" fill="none" stroke="#469434" stroke-miterlimit="22.926" stroke-width="0.5"/>
      <line id="Line_22" data-name="Line 22" x2="1.928" y2="3.133" transform="translate(41.748 6.101)" fill="none" stroke="#469434" stroke-miterlimit="22.926" stroke-width="0.5"/>
      <line id="Line_23" data-name="Line 23" x2="1.759" y2="2.856" transform="translate(44.136 6.565)" fill="none" stroke="#469434" stroke-miterlimit="22.926" stroke-width="0.5"/>
    </g>
  </g>
  <path id="Path_109" data-name="Path 109" d="M900.453,617.227c7.7,0,15.407-6.7,23.11-6.7,7.809,0,15.618,6.7,23.427,6.7v2.735c-7.809,0-15.618-6.7-23.427-6.7-7.7,0-15.407,6.7-23.11,6.7Z" transform="translate(-893.625 -588.152)" fill="#fff" stroke="#469434" stroke-miterlimit="22.926" stroke-width="0.567" fill-rule="evenodd"/>
</svg>
