<svg xmlns="http://www.w3.org/2000/svg" width="15.203" height="15.192" viewBox="0 0 15.203 15.192">
  <path id="Path_121" data-name="Path 121" d="M13.6,15.192H1.61c-.72,0-1.279-.6-1.519-1.519a2.008,2.008,0,0,1,.48-2.039,13.943,13.943,0,0,1,2.878-1.439,13.667,13.667,0,0,0,1.879-.92c.12-.12.04-.959-.84-2.239-1-1.039-.8-1.959-.48-2.4a.68.68,0,0,0-.04-.28,7.3,7.3,0,0,1,.04-2.079C4.448.72,6.208,0,7.607,0s3.158.72,3.6,2.279a5.226,5.226,0,0,1,.04,2.079.593.593,0,0,1-.04.28c.32.44.52,1.359-.48,2.4-.88,1.279-.959,2.159-.84,2.279.16.12,1.159.56,1.879.88a16.425,16.425,0,0,1,2.878,1.439,1.837,1.837,0,0,1,.48,2.039C14.883,14.592,14.283,15.192,13.6,15.192Z" transform="translate(-0.018)" fill="rgba(0,0,0,0.3)"/>
</svg>
