<svg id="Group_35" data-name="Group 35" xmlns="http://www.w3.org/2000/svg" width="58.424" height="58.426" viewBox="0 0 58.424 58.426">
  <rect id="Rectangle_21" data-name="Rectangle 21" width="58.424" height="58.426" rx="4.192" transform="translate(0 0)" fill="#469434"/>
  <g id="Group_33" data-name="Group 33" transform="translate(4.427 7.62)">
    <path id="Path_91" data-name="Path 91" stroke="#fff" d="M904.747,424.4a28.412,28.412,0,0,1,10.881,1.835c2.968.974,4.793,4.3,2.352,5.679-1.5.847-8.57-1.521-12.285-3.106C903.238,427.766,900.929,424.785,904.747,424.4Z" fill="none" transform="translate(-887.279 -418.964)" stroke-linecap="round" stroke-linejoin="round" stroke-width="0.75" fill-rule="evenodd"/>
    <path id="Path_92" data-name="Path 92" stroke="#fff" d="M909.252,422.561c1.91.338,5.482.278,5.731,1.025.284.338.326.825.849,1.015.833.081,1.145.126,1.977.207.648.091.634,1.22.693,1.815C914.448,426.751,911.618,424.619,909.252,422.561Z" fill="none" transform="translate(-880.578 -420.807)" stroke-linecap="round" stroke-linejoin="round" stroke-width="0.75" fill-rule="evenodd"/>
    <path id="Path_93" data-name="Path 93" stroke="#fff" d="M940.277,433.884c-11.762,2.439-32.432,1.629-40.269.19" fill="none" transform="translate(-890.06 -409.191)" stroke-linecap="round" stroke-linejoin="round" stroke-width="0.25" fill-rule="evenodd"/>
    <path id="Path_94" data-name="Path 94" stroke="#fff" d="M896.1,428.571c19.643,8.428,33.654,9.013,46.824,8.2" fill="none" transform="translate(-894.071 -414.642)" stroke-linecap="round" stroke-linejoin="round" stroke-width="0.25" fill-rule="evenodd"/>
    <path id="Path_95" data-name="Path 95" stroke="#fff" d="M895.975,442.411c-.488-.444-.14-1.258-.14-1.258,2.334-6.371,3.772-9.949,6.126-16.371.521-1.669,2.834-2.07,4.279-3.043" fill="none" transform="translate(-894.466 -421.651)" stroke-linecap="round" stroke-linejoin="round" stroke-width="0.25" fill-rule="evenodd"/>
    <path id="Path_96" data-name="Path 96" stroke="#fff" d="M916.47,425.965q-1.134.1-2.269.2c-.559.2-.229.484-.059.77,2.16,3.6,3.831,5.245,6.872,5.735" fill="none" transform="translate(-875.821 -417.315)" stroke-linecap="round" stroke-linejoin="round" stroke-width="0.25" fill-rule="evenodd"/>
    <path id="Path_97" data-name="Path 97" stroke="#fff" d="M906.482,421.782a9.233,9.233,0,0,0-.028,2.008c5.662.344,15.385.612,19.623,3.831,4.854,3.689,6.88,9.578,8.482,15.071-12.374.026-24.775-2.757-38.239-8.33" fill="none" transform="translate(-893.845 -421.606)" stroke-linecap="round" stroke-linejoin="round" stroke-width="0.25" fill-rule="evenodd"/>
    <path id="Path_98" data-name="Path 98" stroke="#fff" d="M945.964,447.6q-2.769-5.181-5.539-10.358-3.315-4.889-6.628-9.783c-4.7.464-7.818-2.062-10.407-4.35l-17.4-1.4c-1.615-.188-4.179,1.171-4.66,2.761-2.156,5.812-4,10.478-6.163,16.294-.271.766.257,1.791.985,1.694,3.989-1.153,8.44.318,8.906,4.054-.1.363-.879,1.295,1.015,1.726C920,449.4,932.595,449.946,945.964,447.6Z" fill="none" transform="translate(-895.098 -421.695)" stroke-linecap="round" stroke-linejoin="round" stroke-width="2" fill-rule="evenodd"/>
  </g>
  <g id="Group_34" data-name="Group 34" transform="translate(10.482 42.025)">
    <path id="Path_99" data-name="Path 99" d="M898.087,439.027a10.113,10.113,0,0,1,1.9-.166,3.326,3.326,0,0,1,2.208.583,1.688,1.688,0,0,1,.668,1.42,1.909,1.909,0,0,1-1.361,1.766v.022a2.076,2.076,0,0,1,1.659,2.018,2.167,2.167,0,0,1-.68,1.611,4.041,4.041,0,0,1-2.78.752,12.039,12.039,0,0,1-1.613-.1Zm1.039,3.294h.944c1.1,0,1.74-.573,1.74-1.349,0-.942-.715-1.313-1.765-1.313a4.389,4.389,0,0,0-.92.073Zm0,3.853a5.457,5.457,0,0,0,.871.049c1.074,0,2.064-.4,2.064-1.564,0-1.1-.944-1.55-2.077-1.55h-.859Z" transform="translate(-898.087 -438.49)" fill="#fff"/>
    <path id="Path_100" data-name="Path 100" d="M902.049,440.009l1.266,3.414c.132.381.274.835.371,1.181h.022c.107-.346.227-.788.371-1.205l1.147-3.389h1.108l-1.576,4.117c-.752,1.981-1.264,3-1.981,3.616a2.831,2.831,0,0,1-1.286.681l-.263-.883a2.78,2.78,0,0,0,.92-.513,3.244,3.244,0,0,0,.883-1.171.768.768,0,0,0,.083-.251.906.906,0,0,0-.073-.274l-2.135-5.322Z" transform="translate(-895.196 -437.313)" fill="#fff"/>
    <path id="Path_101" data-name="Path 101" d="M904.791,443.155a1.849,1.849,0,0,0,1.979,2,3.776,3.776,0,0,0,1.6-.3l.18.752a4.66,4.66,0,0,1-1.921.359,2.682,2.682,0,0,1-2.84-2.913c0-1.74,1.025-3.114,2.707-3.114a2.448,2.448,0,0,1,2.388,2.721,4.327,4.327,0,0,1-.037.49Zm3.077-.752a1.5,1.5,0,0,0-1.456-1.708A1.74,1.74,0,0,0,904.8,442.4Z" transform="translate(-892.238 -437.379)" fill="#fff"/>
    <path id="Path_102" data-name="Path 102" d="M906.535,445.088a17.145,17.145,0,0,0,.715-2.85l1.169-.12a14.523,14.523,0,0,1-1.132,2.9Z" transform="translate(-889.42 -435.149)" fill="#fff"/>
    <path id="Path_103" data-name="Path 103" d="M909.311,447.15c.024-.393.047-.978.047-1.491v-6.981H910.4v3.628h.024a2.145,2.145,0,0,1,1.967-1.064c1.434,0,2.447,1.193,2.437,2.948,0,2.064-1.3,3.092-2.591,3.092A2.058,2.058,0,0,1,910.3,446.2h-.034l-.049.954Zm1.086-2.316a1.941,1.941,0,0,0,.049.383,1.618,1.618,0,0,0,1.574,1.228c1.1,0,1.754-.893,1.754-2.218,0-1.157-.6-2.149-1.72-2.149a1.677,1.677,0,0,0-1.6,1.29,2.2,2.2,0,0,0-.059.43Z" transform="translate(-886.572 -438.678)" fill="#fff"/>
    <path id="Path_104" data-name="Path 104" d="M913.408,440.009l1.266,3.414c.132.381.273.835.371,1.181h.024c.107-.346.225-.788.369-1.205l1.147-3.389h1.11l-1.578,4.117c-.752,1.981-1.264,3-1.979,3.616a2.847,2.847,0,0,1-1.289.681l-.263-.883a2.783,2.783,0,0,0,.92-.513,3.224,3.224,0,0,0,.883-1.171.772.772,0,0,0,.083-.251.953.953,0,0,0-.071-.274l-2.137-5.322Z" transform="translate(-883.543 -437.313)" fill="#fff"/>
    <path id="Path_105" data-name="Path 105" d="M916.15,443.155a1.85,1.85,0,0,0,1.981,2,3.783,3.783,0,0,0,1.6-.3l.178.752a4.653,4.653,0,0,1-1.921.359,2.682,2.682,0,0,1-2.84-2.913c0-1.74,1.027-3.114,2.709-3.114a2.449,2.449,0,0,1,2.389,2.721,3.845,3.845,0,0,1-.038.49Zm3.079-.752a1.5,1.5,0,0,0-1.457-1.708,1.739,1.739,0,0,0-1.611,1.708Z" transform="translate(-880.585 -437.379)" fill="#fff"/>
  </g>
</svg>
