<svg id="Слой_1" data-name="Слой 1" xmlns="http://www.w3.org/2000/svg" viewBox="0 0 17 18">
  <defs>
    <style>
      .cls-1 {
        fill: none;
      }

      .cls-2 {
        fill: #fff;
      }
    </style>
  </defs>
  <title>sign-icon</title>
  <g id="Ellipse_1_copy_3" data-name="Ellipse 1 copy 3">
    <path class="cls-1" d="M3,7.87a11.25,11.25,0,0,1,12,0c3.32,2.32,3.32,6.08,0,8.39a11.25,11.25,0,0,1-12,0C-.33,14-.33,10.19,3,7.87Z" transform="translate(-0.5 0)"/>
    <path d="M9,8.13A8.67,8.67,0,0,0,4.13,9.51,3.28,3.28,0,0,0,2.5,12.07a3.27,3.27,0,0,0,1.63,2.55A8.67,8.67,0,0,0,9,16a8.61,8.61,0,0,0,4.86-1.38,3.25,3.25,0,0,0,1.64-2.55,3.27,3.27,0,0,0-1.64-2.56A8.61,8.61,0,0,0,9,8.13m0-2a10.62,10.62,0,0,1,6,1.74c3.32,2.32,3.32,6.07,0,8.39A10.62,10.62,0,0,1,9,18a10.6,10.6,0,0,1-6-1.74C-.33,13.94-.33,10.19,3,7.87A10.6,10.6,0,0,1,9,6.13Z" transform="translate(-0.5 0)"/>
  </g>
  <g id="Ellipse_1_copy_3-2" data-name="Ellipse 1 copy 3">
    <path class="cls-2" d="M9,10.08A4.31,4.31,0,0,1,5.89,8.76a4.64,4.64,0,0,1,0-6.44,4.32,4.32,0,0,1,6.22,0,4.64,4.64,0,0,1,0,6.44A4.33,4.33,0,0,1,9,10.08Z" transform="translate(-0.5 0)"/>
    <path d="M9,2A3.35,3.35,0,0,0,6.6,3a3.64,3.64,0,0,0,0,5,3.39,3.39,0,0,0,2.4,1,3.35,3.35,0,0,0,2.39-1,3.62,3.62,0,0,0,0-5A3.31,3.31,0,0,0,9,2M9,0a5.32,5.32,0,0,1,3.82,1.62,5.63,5.63,0,0,1,0,7.83,5.3,5.3,0,0,1-7.65,0,5.63,5.63,0,0,1,0-7.83A5.34,5.34,0,0,1,9,0Z" transform="translate(-0.5 0)"/>
  </g>
</svg>