<svg xmlns="http://www.w3.org/2000/svg" width="10.818" height="11.077" viewBox="0 0 10.818 11.077">
  <g id="Ellipse_1_copy_3" data-name="Ellipse 1 copy 3" transform="translate(-5.088 -2.003)" fill="#fff">
    <path d="M 10.49692916870117 12.07932949066162 C 9.323639869689941 12.07932949066162 8.21930980682373 11.61026000976562 7.387359619140625 10.75854015350342 C 5.654819488525391 8.984330177307129 5.654799461364746 6.097539901733398 7.387409687042236 4.323509693145752 C 8.21934986114502 3.471669673919678 9.32366943359375 3.002549648284912 10.49692916870117 3.002549648284912 C 11.67016983032227 3.002549648284912 12.77440929412842 3.471659660339355 13.6062593460083 4.323469638824463 C 15.3389892578125 6.097549915313721 15.33896923065186 8.984330177307129 13.6062593460083 10.75862979888916 C 12.77445983886719 11.61026954650879 11.67018985748291 12.07931995391846 10.49692916870117 12.07932949066162 Z" stroke="none"/>
    <path d="M 10.49689960479736 4.00255012512207 C 9.595249176025391 4.00255012512207 8.744999885559082 4.364649772644043 8.102799415588379 5.022199630737305 C 6.74644947052002 6.410999298095703 6.746500015258789 8.670949935913086 8.102699279785156 10.05979919433594 C 8.744899749755859 10.71724987030029 9.595149993896484 11.07929992675781 10.49689960479736 11.07929992675781 C 11.39859962463379 11.07929992675781 12.24884986877441 10.71724987030029 12.8907995223999 10.05994987487793 C 14.24729919433594 8.670949935913086 14.24734973907471 6.410999298095703 12.8907995223999 5.022150039672852 C 12.24874973297119 4.364649772644043 11.39855003356934 4.00255012512207 10.49689960479736 4.00255012512207 M 10.49692440032959 2.00255012512207 C 11.88124942779541 2.00255012512207 13.265549659729 2.543299674987793 14.32169914245605 3.624799728393555 C 16.4340991973877 5.787599563598633 16.4340991973877 9.29419994354248 14.32169914245605 11.45730018615723 C 13.265549659729 12.538649559021 11.88124942779541 13.07932472229004 10.49692440032959 13.07932472229004 C 9.11259937286377 13.07932472229004 7.728249549865723 12.538649559021 6.671999931335449 11.45730018615723 C 4.559700012207031 9.29419994354248 4.559700012207031 5.787599563598633 6.671999931335449 3.624799728393555 C 7.728249549865723 2.543299674987793 9.11259937286377 2.00255012512207 10.49692440032959 2.00255012512207 Z" stroke="none"/>
  </g>
</svg>
