<svg xmlns="http://www.w3.org/2000/svg" width="17" height="11.868" viewBox="0 0 17 11.868">
  <g id="Ellipse_1_copy_3" data-name="Ellipse 1 copy 3" transform="translate(-1.995 -8.135)" fill="none">
    <path d="M4.485,9.873a11.261,11.261,0,0,1,12.021,0c3.319,2.317,3.319,6.075,0,8.392a11.263,11.263,0,0,1-12.021,0C1.165,15.948,1.165,12.19,4.485,9.873Z" stroke="none"/>
    <path d="M 10.49524974822998 10.13465309143066 C 8.65746021270752 10.13465309143066 6.884038925170898 10.63686370849609 5.62972354888916 11.51259994506836 C 4.575723648071289 12.24844169616699 3.995248794555664 13.15623092651367 3.995302200317383 14.06881046295166 C 3.995302200317383 14.98133659362793 4.575723648071289 15.88912582397461 5.629671096801758 16.62486267089844 C 6.884038925170898 17.50044250488281 8.657512664794922 18.00265121459961 10.49524974822998 18.00265121459961 C 12.33298683166504 18.00265121459961 14.10651302337646 17.50044250488281 15.36088180541992 16.62491607666016 C 16.41482925415039 15.88912582397461 16.9952507019043 14.98133659362793 16.9952507019043 14.06881046295166 C 16.9952507019043 13.15623092651367 16.41482925415039 12.24838924407959 15.36088180541992 11.51259994506836 C 14.10646057128906 10.63691520690918 12.33303928375244 10.13465309143066 10.49524974822998 10.13465309143066 M 10.49526309967041 8.134639739990234 C 12.67060470581055 8.134639739990234 14.84596061706543 8.713994979858398 16.50572395324707 9.872705459594727 C 19.82509231567383 12.19007301330566 19.82509231567383 15.94749450683594 16.50572395324707 18.26481056213379 C 14.84596061706543 19.42336273193359 12.67060470581055 20.00263977050781 10.49526309967041 20.00263977050781 C 8.319920539855957 20.00263977050781 6.14459228515625 19.42336273193359 4.484880447387695 18.26481056213379 C 1.165407180786133 15.94749450683594 1.165407180786133 12.19007301330566 4.484880447387695 9.872705459594727 C 6.14459228515625 8.713994979858398 8.319920539855957 8.134639739990234 10.49526309967041 8.134639739990234 Z" stroke="none"/>
  </g>
</svg>
