<svg xmlns="http://www.w3.org/2000/svg" xmlns:xlink="http://www.w3.org/1999/xlink" viewBox="0 0 104.86 80"><defs><clipPath id="a"><rect x="26.2" y="77.32" width="55.23" height="2.67" style="fill:none"/></clipPath><clipPath id="b"><polygon points="81.42 95.38 53.81 88.02 26.2 95.38 26.2 77.32 81.42 77.32 81.42 95.38" style="fill:none"/></clipPath></defs><title>Монтажная область 1</title><path d="M56.92,20.52H53.44v-.35a3.64,3.64,0,0,0,.38-.05,1.59,1.59,0,0,0,.3-.06.5.5,0,0,0,.24-.19.61.61,0,0,0,.08-.3v-4.8l-2.21,5.65h-.58a5,5,0,0,0-.2-.59c-.1-.3-.19-.54-.26-.71L49.57,14.7v3.91a3.49,3.49,0,0,0,.07.85.77.77,0,0,0,.24.43,1.07,1.07,0,0,0,.41.18,1.89,1.89,0,0,0,.41.1v.36H47.94v-.36l.37-.06a1,1,0,0,0,.41-.16.64.64,0,0,0,.25-.43,4.15,4.15,0,0,0,.06-.86V15.47A1.33,1.33,0,0,0,49,15a.65.65,0,0,0-.22-.3,1,1,0,0,0-.37-.19L48,14.45V14.1h3l1.58,4.23,1.34-3.43a4,4,0,0,0,.13-.46,2.05,2.05,0,0,0,.07-.34h2.85v.35l-.3,0a1.63,1.63,0,0,0-.3.07.36.36,0,0,0-.24.18A.93.93,0,0,0,56,15v4.55a.5.5,0,0,0,0,.27.52.52,0,0,0,.24.2,1.46,1.46,0,0,0,.3.07l.32.05Zm33,3a1.43,1.43,0,0,0-.27-.46,1,1,0,0,0-.74-.35s.09.2.15.39,0,.17.06.24a1.25,1.25,0,0,1,.8.18Zm-1-.14.16,0a1.42,1.42,0,0,0-.28-.22A1,1,0,0,0,88,23s.15.16.27.32.13.2.18.3a1.53,1.53,0,0,1,.21-.14,1,1,0,0,1,.28-.13Zm-.53.31-.21-.08a1,1,0,0,0-.81.13s.19.11.34.24a2.23,2.23,0,0,1,.27.26,2,2,0,0,1,.4-.55Zm-.6.62a1,1,0,0,0-.69.45s.22,0,.41.08l.23.07A3.39,3.39,0,0,1,88,24.3h-.16Zm-.22.75a1,1,0,0,0-.46.68s.21-.06.41-.09h.13a3.7,3.7,0,0,1,.07-.66l-.16.08Zm.32,20.74-.1.05a1,1,0,0,0-.46.68s.2-.06.4-.09h.19a.59.59,0,0,1,0-.13,1.68,1.68,0,0,1,0-.5Zm.27-.69-.17,0a1,1,0,0,0-.76.32s.21.06.39.15a1.51,1.51,0,0,1,.28.15,1.64,1.64,0,0,1,.25-.61Zm.54-.52a1.15,1.15,0,0,0-.25-.12,1,1,0,0,0-.81,0s.17.13.31.28a2.09,2.09,0,0,1,.24.28l0-.05a2,2,0,0,1,.46-.42Zm.75-.25a1.27,1.27,0,0,0-.27-.25,1,1,0,0,0-.8-.17,3.86,3.86,0,0,1,.24.35c.06.11.11.21.14.28a1.51,1.51,0,0,1,.69-.21Zm.73.28a1.07,1.07,0,0,0-.14-.68,1,1,0,0,0-.71-.41,3.43,3.43,0,0,1,.11.4,1.84,1.84,0,0,1,.05.41.83.83,0,0,1,.35,0,.64.64,0,0,1,.33.23ZM96.65,44a8.16,8.16,0,0,1,1.64-.19,4.58,4.58,0,0,1-.54-1.24c-.06-.25-.11-.5-.15-.76l-.35.12-.3.71.17-.66a2.69,2.69,0,0,0-.32.13l-.27.6.15-.55a3.24,3.24,0,0,0-.37.19l-.23.6.13-.54a2.54,2.54,0,0,0-.34.23l-.23.68.13-.61,0,0-.23.19-.18.61.08-.51-.25.23-.12.47,0-.39a5.15,5.15,0,0,0-.53.61,5,5,0,0,1,1.16-1.27,4.82,4.82,0,0,1,1.89-.95,6.55,6.55,0,0,1,.29-2.85c-.09-.09-.32-.31-.63-.65a14.92,14.92,0,0,0-2.44.92,4,4,0,0,0-2.55,3c-.11,1,.47,1.86.35,2.55s-1,1.63-1.77,1.54-.43-.7-.59-1.37-1.26-.68-2,.15a1.91,1.91,0,0,0,.53,2.64l.2.12a2.48,2.48,0,0,0,1.9.39s-.1.3-.07.31a1.12,1.12,0,0,0,.63,0,1.72,1.72,0,0,0,.64-.43s-.23.48-.18.52a.84.84,0,0,0,.68-.22,1.61,1.61,0,0,0,.44-.59,3.25,3.25,0,0,0,0,.54,1.06,1.06,0,0,0,.58-.44,2,2,0,0,0,.3-.65s.08.47.14.47.24-.16.34-.49a3.88,3.88,0,0,0,.11-.75,3.91,3.91,0,0,0,.31.57,1,1,0,0,0,.3-.59,1.58,1.58,0,0,0-.09-.68s.3.35.34.33a.71.71,0,0,0,.24-.66,6.81,6.81,0,0,1,0-.78,2.32,2.32,0,0,1,1-.63Zm-2,1.09a4.34,4.34,0,0,1-4,2.55,4.63,4.63,0,0,0,4-2.51c.08-.17.08-.05.08-.05Zm10.16,1.72a1.1,1.1,0,0,0-.23-.63,1.56,1.56,0,0,0-.55-.4,1.86,1.86,0,0,0,.47,0,.74.74,0,0,0-.31-.63,7.57,7.57,0,0,1-.6-.5,4,4,0,0,1-.15-1c0-.89.39-.93.59-2.2a4.81,4.81,0,0,0,0-1.56,6.8,6.8,0,0,0-.64-1.58,4.44,4.44,0,0,1,.75,1.62c.18.07.53.17.62.1a3.35,3.35,0,0,0-.82-2.24c-.6-.77-1.41-1.1-1.78-1.74a8.81,8.81,0,0,1-.6-2.53,2.94,2.94,0,0,1,.33-.8,1.51,1.51,0,0,0,.22.28c.06,0,.23-.24.32-.56a3.58,3.58,0,0,0,.1-.8s.22.41.28.42.16-.17.23-.54a3.5,3.5,0,0,0,.05-.79,2.21,2.21,0,0,0,.28.4s.17-.22.17-.71a5.51,5.51,0,0,0-.1-.91,3,3,0,0,0,.43.36,1.6,1.6,0,0,0,0-.81,2,2,0,0,0-.26-.77,3.36,3.36,0,0,0,.51.32,1.26,1.26,0,0,0-.1-.74,3.07,3.07,0,0,0-.4-.76q.3.11.6.18a1.37,1.37,0,0,0-.15-.69,2.83,2.83,0,0,0-.46-.63,2.92,2.92,0,0,0,.51,0s-.07-.3-.25-.56a2,2,0,0,0-.51-.49,2.88,2.88,0,0,0,.51-.1c0-.05-.27-.39-.5-.56a4.48,4.48,0,0,0-.56-.32,2.53,2.53,0,0,0,.45-.19,1.36,1.36,0,0,0-.55-.46,2.83,2.83,0,0,0-.65-.25s.41-.26.39-.3a1.63,1.63,0,0,0-.7-.27,3.31,3.31,0,0,0-.83-.05,3.28,3.28,0,0,0,.27-.38,2.33,2.33,0,0,0-1-.06,5.78,5.78,0,0,0-.57.12l0,.11a1.12,1.12,0,0,1-.47.94l0-.1L98,22.69l-.07,0a.54.54,0,0,0,.1-.16.35.35,0,0,0,0-.06s0-.09,0-.15a4.64,4.64,0,0,0-2.51.93c-.14.07-1.6.41-1.81.54s0,.49,0,.49c.06-.16.45-.28.45-.08,0,0-.14-.05-.24,0a.38.38,0,0,0-.23.2.65.65,0,0,0,0,.24,1.47,1.47,0,0,0,1.86.91,1.68,1.68,0,0,0,.33-.16c.35-.19.58-.74.78-.5a3.48,3.48,0,0,1,.42,1.45.4.4,0,0,1-.37.43h-.08c-.26,0-.88-.08-1.27-.11s-.51.05-.5.28.46.75.59.72.6-.54.92-.44a10.36,10.36,0,0,1,1,.5,1.65,1.65,0,0,0,2.27-.55,1.81,1.81,0,0,0,.24-.85c.1,1.38-1.23,2.16-2.73,1.48-.79.3-3.45,1.53-3.26,4.31a4.52,4.52,0,0,0,.06.53A15.7,15.7,0,0,1,97,30a3.37,3.37,0,0,1,1.81-.43,12.48,12.48,0,0,1,1.37,1,2,2,0,0,1,.29,2.83l-.14.16h0s-.08,0-.27-.26a1.41,1.41,0,0,1-.08.58c-.13.3-.39.57-.49.57h0s-.08,0-.16-.27a2,2,0,0,1-.22.46,1.06,1.06,0,0,1-.52.46h0s-.05,0-.15-.28a2.24,2.24,0,0,1-.26.54c-.21.31-.41.45-.51.45h0s-.08,0-.14-.3a2,2,0,0,1-.22.37,1.21,1.21,0,0,1-.59.43h0s-.07,0-.1-.24a1.83,1.83,0,0,1-.26.42l-.21.23A17.7,17.7,0,0,0,98,38.87a6.32,6.32,0,0,0-.14,3.68c.67,2.51,2.53,2.47,3.25,3.6s1,2.54.38,2.86-.73-.37-1.22-.85-1.43.1-1.57,1.17a1.9,1.9,0,0,0,1.85,2h.23a4.31,4.31,0,0,0,2.29-.8s.15.29.18.27a1.07,1.07,0,0,0,.41-.48,2,2,0,0,0,.13-.76s.19.5.24.49a.83.83,0,0,0,.31-.65,1.79,1.79,0,0,0-.12-.72s.36.39.39.37a1.05,1.05,0,0,0,.08-.72,2,2,0,0,0-.27-.67s.4.26.44.22a.72.72,0,0,0-.13-.58,3,3,0,0,0-.46-.6,3.22,3.22,0,0,0,.61.16Zm-2-20.6s0-.33.1-.05a4.17,4.17,0,0,1,.09.72Zm.32,3a2.63,2.63,0,0,1-.13.57v-.57s.13-.23.12,0Zm-.22-4.06a5.27,5.27,0,0,1,.19.68l-.29-.61s0-.34.09-.07Zm-.13,1.9a5.48,5.48,0,0,1,0,.7l-.06-.68s.08-.3.09,0Zm-.25,3.08s.12-.26.1,0-.1.62-.1.62Zm-.16-2.38s.11-.36.1,0a4.91,4.91,0,0,1-.1.77ZM97,23h-.07a.56.56,0,0,1-.29.56.74.74,0,0,1-.69-.1.27.27,0,0,1-.12,0s0-.08,0-.08h.13c.07,0,.41-.31.65-.4a1.12,1.12,0,0,1,.48-.06s0,0-.06,0Zm-.57,5.78a1.36,1.36,0,0,1-.36.1l.28-.16s.29,0,.08.06Zm.86,0a1.92,1.92,0,0,1-.46.21l.38-.26s.26-.09.07.05Zm.89-.12a5.86,5.86,0,0,1-.55.3l.48-.37s.24,0,.06.07Zm.87-.17a1.92,1.92,0,0,1-.42.28l.33-.31s.24-.13.08,0ZM99.9,28a3.68,3.68,0,0,1-.39.58l.3-.64s.22-.2.09.06ZM98.57,39s.22-.12.08.08-.44.55-.44.55Zm0,.86s.2-.09.08.09-.31.41-.48.61Zm-.06.92s.28-.25.06,0-.36.48-.36.48Zm.15.66s.26-.18,0,.12a4,4,0,0,1-.41.51Zm.08.77s.22-.15.08.06-.31.43-.31.43Zm.39.74a5.29,5.29,0,0,1-.32.5l.21-.54s.22-.19.1,0Zm.38.45a4.31,4.31,0,0,1-.25.45l.17-.45s.17-.2.08,0Zm.54.47a3.41,3.41,0,0,1-.22.48l.1-.48s.17-.16.12,0Zm.4-16.28a3.91,3.91,0,0,1-.27.67l.15-.67s.17-.26.11,0Zm.36,2.22a5.15,5.15,0,0,1-.23.54l.15-.57s.17-.27.07,0Zm.11-2.71c-.07.29-.19.7-.19.7l.08-.67s.16-.32.1,0Zm.6-1.1s0-.36.1-.07.08.69.08.69Zm.18-.8c.11.35.19.68.19.68l-.28-.62s0-.4.08-.06Zm.39,5.61q-.07.3-.18.6l.07-.6s.17-.27.11,0Zm0-2.24c-.1.39-.2.69-.2.69l.07-.69s.22-.39.12,0Zm-.39-4s-.08-.35.07-.08L102,25Zm-.21-1c.2.3.4.56.4.56l-.47-.47s-.14-.38.06-.09Zm-.26,3s.15-.28.12,0-.07.39-.12.59Zm.3,4.83a4.76,4.76,0,0,1-.2.74l.1-.74s.14-.3.09,0Zm0-2.27a5.49,5.49,0,0,1-.21.69l.1-.69s.15-.26.1,0Zm.47,8.48s-.18-.28.11-.08a2.63,2.63,0,0,1,1,1.87,2.48,2.48,0,0,0-1.1-1.8Zm1.51,11.69a5.73,5.73,0,0,0-.38-4c-.06-.13.09,0,.09,0a5,5,0,0,1,.27,4Zm-9.6-17.24a4,4,0,0,1,0-.49c-2,.38-3.77-1.95-3.77-1.95a9.05,9.05,0,0,0,2.08,1.61,2.5,2.5,0,0,0,1.7.22,4,4,0,0,1,1.58-2.8,8.23,8.23,0,0,0-2.52.27c-.08,0-1.9-1.59-2.23-1.78a6.05,6.05,0,0,1-.94-.65.53.53,0,0,1,.05-.6,3.13,3.13,0,0,0,.59-1.61A1.2,1.2,0,0,0,89,23.43a1.3,1.3,0,0,0-.3.13,2.73,2.73,0,0,0-.8,3c.37.9.84.95.93,1.28a1.73,1.73,0,0,1,0,.6s-.32-.1-.35-.07,0,.26.19.56a2.35,2.35,0,0,0,.54.5,1.34,1.34,0,0,0-.4,0,1.29,1.29,0,0,0,.36.51,2.36,2.36,0,0,0,.76.38,4.37,4.37,0,0,0-.52.12A1.26,1.26,0,0,0,90,31a2.27,2.27,0,0,0,.91.23,2.73,2.73,0,0,0-.55.25,1.55,1.55,0,0,0,.81.51,1.84,1.84,0,0,0,.7.08s-.29.34-.27.38a.73.73,0,0,0,.62.14,3,3,0,0,0,.89-.32,5.39,5.39,0,0,0-.3.52,1,1,0,0,0,.66,0,1.88,1.88,0,0,0,.51-.31c0-.11,0-.23,0-.35Zm4.67,17.3v-.06a2.08,2.08,0,0,1,.18-.6,1.27,1.27,0,0,0-.28,0,1,1,0,0,0-.67.47s.21,0,.41.06l.34.11Zm1-1.93a1,1,0,0,0-.82,0s.17.13.31.28a4,4,0,0,1,.26.32,1,1,0,0,1,.51-.17.57.57,0,0,1,.22,0,1,1,0,0,0-.5-.5Zm-.75,1.2a1.64,1.64,0,0,1,.47-.55,1.53,1.53,0,0,0-.36-.07,1,1,0,0,0-.77.29s.2.07.38.17a1.91,1.91,0,0,1,.27.16Zm.19,2a1.77,1.77,0,0,1-.28-.43l0,.1a1,1,0,0,0,0,.82s.14-.16.3-.29l.14-.11a.41.41,0,0,1-.09-.1Zm-.41-1.16-.16.08a1,1,0,0,0-.46.67s.21-.06.4-.08a2,2,0,0,1,.32,0,1.49,1.49,0,0,1-.12-.66Zm1-27.15c-.09-.49-.81-.54-1.13-.37a.81.81,0,0,0-.37.61.42.42,0,0,1-.11.18l.39.15s0-.09.08-.2h0c.12-.3.21-.5.63-.5-.37.08-.43.17-.54.47l.25-.06a1.5,1.5,0,0,1-.28.16c0,.07-.05.14-.06.17l.69.26s.53-.39.44-.88Zm-2.49,4a2.45,2.45,0,0,0,0-.27,1.89,1.89,0,0,0-1-.33c-.46,0-1.1.39-1.54.42s-.73,0-.84-.28,0-.52,0-.54a.67.67,0,0,0-.44.64c0,.44.42.72,1,.66A6.76,6.76,0,0,1,96,26.29a1.67,1.67,0,0,1,.83.38c.19,0,.29-.14.31-.37Zm-2.56-.76a1.8,1.8,0,0,0,.08.21.72.72,0,0,0,.21.25,3.65,3.65,0,0,0,.31-.36h0a1.6,1.6,0,0,1-.57-.11Zm1.61-2.23a.29.29,0,0,0,.54-.15.42.42,0,0,0,0-.15l-.05,0a2.13,2.13,0,0,0-.46.27ZM88.4,34.24a2,2,0,0,1,.55-.1.91.91,0,0,1,.23,0,1.51,1.51,0,0,0-.35-.44A1,1,0,0,0,88,33.5a2.18,2.18,0,0,1,.2.36,2.5,2.5,0,0,1,.15.38Zm-.94.14a3.1,3.1,0,0,1,.21.25,2.2,2.2,0,0,1,.32-.21,2.41,2.41,0,0,1,.33-.15,1.58,1.58,0,0,0-.36-.2,1,1,0,0,0-.81,0s.16.13.3.27ZM87,35.94a1.65,1.65,0,0,1,.17-.66.86.86,0,0,0-.27,0,1,1,0,0,0-.63.52s.22,0,.42,0l.3.06Zm.2-.72a2,2,0,0,1,.48-.56,1.51,1.51,0,0,0-.41-.09,1,1,0,0,0-.78.27,2.81,2.81,0,0,1,.38.17,2.2,2.2,0,0,1,.32.21ZM87,36l-.19.13a1,1,0,0,0-.38.72,3.89,3.89,0,0,1,.39-.13l.33-.06a1.53,1.53,0,0,1-.16-.66Zm13.9-3.79a1.83,1.83,0,0,1-.53,1.27c-.06,0-.36-.43-.36-.43a1.82,1.82,0,0,1-.06.8,1.07,1.07,0,0,1-.42.52c-.06,0-.18-.46-.18-.46a2.16,2.16,0,0,1-.27.69,1.07,1.07,0,0,1-.47.42,3.52,3.52,0,0,1-.18-.45,2.06,2.06,0,0,1-.3.74c-.22.32-.41.43-.46.42s-.13-.5-.13-.5a1.91,1.91,0,0,1-.29.59,1.37,1.37,0,0,1-.54.41s-.08-.48-.08-.48a2.1,2.1,0,0,1-.35.68,1.6,1.6,0,0,1-.54.46,2.22,2.22,0,0,1-.11-.56,2.34,2.34,0,0,1-.28.6,1.37,1.37,0,0,1-.52.43,2,2,0,0,1-.09-.48,1.87,1.87,0,0,1-.4.64,1.22,1.22,0,0,1-.57.38,1.93,1.93,0,0,1,0-.48,2.22,2.22,0,0,1-.44.48,1,1,0,0,0-1.25.33,1.75,1.75,0,0,1-.63.18.36.36,0,1,0-.37-.61.38.38,0,0,0-.15.43,1.28,1.28,0,0,1-.55,0s.11-.22.11-.22a2.9,2.9,0,0,1-.57-.12c-.3-.1-.47-.39-.54-.4s-.43.1-.59.09a1.88,1.88,0,0,1-1.49-.8,1.62,1.62,0,0,1,.59-2.22.66.66,0,0,1,.19-.09c1-.54,1.55-.17,1.65.14s0,.48-.05.63a.5.5,0,0,0,.38.41,4.69,4.69,0,0,0,2-1C93,34,95.35,31,97,30c2-1.16,3.84-.57,3.81,2.19ZM92.32,36.8l-.46.4a3.94,3.94,0,0,0,.55-.35c.16-.16-.1-.06-.1-.06Zm.88-.39-.37.49a2.61,2.61,0,0,0,.47-.47c.11-.2-.11,0-.11,0Zm.69-.37-.33.47a2.83,2.83,0,0,0,.42-.43c.15-.22-.11,0-.11,0Zm.62-.26-.35.49a2.13,2.13,0,0,0,.44-.46c.19-.29-.1,0-.1,0Zm.77-.46-.37.51a2.79,2.79,0,0,0,.46-.45c.16-.26-.1-.07-.1-.07Zm.66-.4-.3.55a3.56,3.56,0,0,0,.41-.53c.17-.3-.12,0-.12,0Zm.78-.49-.27.49a5.85,5.85,0,0,0,.38-.49c.17-.28-.12,0-.12,0Zm.77-.39-.32.58a3.09,3.09,0,0,0,.4-.55c.15-.31-.1,0-.1,0Zm.76-.52L98,34a6,6,0,0,0,.36-.5c.18-.27-.1,0-.1,0ZM99,33.1l-.17.42a3.07,3.07,0,0,0,.28-.42c.09-.21-.13,0-.13,0ZM15.73,23.34c0-.06,0-.15.06-.24a2.89,2.89,0,0,1,.15-.39,1,1,0,0,0-.74.35,1.47,1.47,0,0,0-.27.47,1.21,1.21,0,0,1,.79-.19Zm.49.17.2.14c.06-.1.12-.2.19-.3s.26-.31.26-.32a1,1,0,0,0-.81.1,1.18,1.18,0,0,0-.28.22l.15,0a1.11,1.11,0,0,1,.27.12Zm.65.73a3.45,3.45,0,0,1,.28-.26c.15-.13.34-.23.34-.24a1,1,0,0,0-.81-.12l-.21.07a2.07,2.07,0,0,1,.39.54Zm0,.06a3.23,3.23,0,0,1,.21.62l.23-.08a2.9,2.9,0,0,1,.4-.07,1,1,0,0,0-.68-.45l-.18,0Zm.22.68a3.72,3.72,0,0,1,.08.66l.13,0c.2,0,.4.09.41.08a1,1,0,0,0-.46-.67.7.7,0,0,0-.17-.09ZM17,46.31l0,.12.19,0c.2,0,.4.09.41.08a1,1,0,0,0-.47-.67L17,45.8a1.67,1.67,0,0,1,0,.5Zm0-.6a3,3,0,0,1,.27-.15c.18-.09.39-.14.39-.15a1,1,0,0,0-.75-.32l-.17,0a1.58,1.58,0,0,1,.24.6Zm-.33-.7,0,.06a2.17,2.17,0,0,1,.24-.29c.14-.14.31-.26.31-.27a1,1,0,0,0-.82,0,1.41,1.41,0,0,0-.24.13,2,2,0,0,1,.45.41Zm-.53-.45a2.45,2.45,0,0,1,.14-.29c.1-.17.24-.33.24-.34a1,1,0,0,0-.8.16,1.6,1.6,0,0,0-.27.25,1.64,1.64,0,0,1,.67.21ZM15,44.39a1,1,0,0,1,.35,0,1.92,1.92,0,0,1,.05-.41c0-.2.12-.39.11-.4a1,1,0,0,0-.71.41,1.09,1.09,0,0,0-.14.68.7.7,0,0,1,.32-.24Zm-5.73.25a6.78,6.78,0,0,1,0,.77.77.77,0,0,0,.25.67s.33-.34.33-.34a1.44,1.44,0,0,0-.08.68A1,1,0,0,0,10,47a3.1,3.1,0,0,0,.3-.57,3.09,3.09,0,0,0,.12.75c.1.33.28.5.33.5s.14-.48.14-.48a2.07,2.07,0,0,0,.3.66,1.11,1.11,0,0,0,.59.43,3.25,3.25,0,0,0,0-.54,1.75,1.75,0,0,0,.45.59.84.84,0,0,0,.68.22s-.19-.51-.19-.51a1.83,1.83,0,0,0,.64.42,1.13,1.13,0,0,0,.63,0S14,48.2,14,48.2a2.42,2.42,0,0,0,1.9-.39,1.9,1.9,0,0,0,.85-2.55l-.12-.2c-.69-.84-1.79-.84-1.95-.16s.14,1.28-.59,1.37-1.64-.84-1.77-1.53.46-1.58.35-2.56a4,4,0,0,0-2.55-3,15,15,0,0,0-2.44-.93c-.31.34-.54.57-.63.65a6.42,6.42,0,0,1,.29,2.85,4.82,4.82,0,0,1,1.89.95A5.18,5.18,0,0,1,10.34,44a5.15,5.15,0,0,0-.53-.61l0,.4-.12-.47L9.49,43l.08.51L9.39,43l-.23-.2-.05,0,.13.61L9,42.64l-.35-.23.14.54-.24-.6-.37-.19.15.55-.27-.6L7.77,42l.16.66-.3-.7-.35-.12q-.06.38-.15.75a4.19,4.19,0,0,1-.54,1.25A6.88,6.88,0,0,1,8.23,44a2.22,2.22,0,0,1,1,.62Zm1,.5A4.61,4.61,0,0,0,11.7,46.8a4.72,4.72,0,0,0,2.51.85,4.36,4.36,0,0,1-4-2.56s0-.13.07,0ZM.65,46.65a3,3,0,0,0-.47.6.75.75,0,0,0-.13.58s.44-.22.44-.22a2.19,2.19,0,0,0-.27.67A1.12,1.12,0,0,0,.31,49s.38-.37.38-.37a1.62,1.62,0,0,0-.11.72.85.85,0,0,0,.3.65c.06,0,.25-.49.25-.49a1.79,1.79,0,0,0,.13.76,1.06,1.06,0,0,0,.41.48s.18-.27.18-.27a4.24,4.24,0,0,0,2.28.8,1.9,1.9,0,0,0,2.08-1.71,1.77,1.77,0,0,0,0-.23c-.13-1.08-1.07-1.66-1.56-1.17s-.56,1.16-1.23.85-.31-1.77.38-2.86,2.59-1.09,3.26-3.6a6.41,6.41,0,0,0-.14-3.68,18.59,18.59,0,0,0,1.9-2.16l-.22-.23a2.26,2.26,0,0,1-.26-.42c0,.23-.06.24-.1.24h0a1.26,1.26,0,0,1-.59-.43,2,2,0,0,1-.22-.37c-.06.3-.1.3-.14.3h0c-.1,0-.3-.14-.51-.45a1.89,1.89,0,0,1-.25-.54c-.1.27-.13.27-.16.28h0a1.06,1.06,0,0,1-.52-.46,1.92,1.92,0,0,1-.21-.46c-.09.26-.13.26-.17.27h0c-.1,0-.36-.27-.49-.57a1.6,1.6,0,0,1-.08-.58c-.19.25-.24.26-.26.26h0a2,2,0,0,1,0-2.85,1.07,1.07,0,0,1,.16-.14,12.48,12.48,0,0,1,1.37-1A3.35,3.35,0,0,1,7.89,30a15.7,15.7,0,0,1,3,2.63,4.52,4.52,0,0,0,.06-.53c.19-2.78-2.47-4-3.26-4.31-1.5.68-2.82-.1-2.73-1.48a1.66,1.66,0,0,0,1.67,1.64,1.55,1.55,0,0,0,.84-.24,10.36,10.36,0,0,1,1-.5c.32-.1.79.41.92.44s.59-.5.6-.72-.1-.32-.5-.28-1,.12-1.28.11a.4.4,0,0,1-.44-.36.09.09,0,0,1,0-.07,3.33,3.33,0,0,1,.42-1.45c.19-.25.42.3.78.5a1.46,1.46,0,0,0,2-.42,1.66,1.66,0,0,0,.16-.33.49.49,0,0,0,0-.24.38.38,0,0,0-.23-.2c-.1,0-.23.06-.24,0,0-.2.39-.08.45.08,0,0,.24-.36,0-.49s-1.68-.47-1.82-.54a4.61,4.61,0,0,0-2.5-.93l0,.15s0,0,0,.06a.51.51,0,0,0,.09.16l-.07,0-1.15.42,0,.1a1.11,1.11,0,0,1-.48-.94.36.36,0,0,1,0-.11,5.41,5.41,0,0,0-.58-.12,2.29,2.29,0,0,0-1,.06,2.33,2.33,0,0,0,.26.38,3.23,3.23,0,0,0-.82.05,1.53,1.53,0,0,0-.7.27s.38.3.38.3a3.23,3.23,0,0,0-.65.25,1.36,1.36,0,0,0-.55.46A2.62,2.62,0,0,0,2,24a3.86,3.86,0,0,0-.56.32c-.24.17-.54.51-.51.56a3.06,3.06,0,0,0,.51.1,2.15,2.15,0,0,0-.51.49A1.14,1.14,0,0,0,.7,26a2.92,2.92,0,0,0,.51,0,3.43,3.43,0,0,0-.46.62,1.55,1.55,0,0,0-.15.7q.3-.08.6-.18a3.6,3.6,0,0,0-.4.75,1.39,1.39,0,0,0-.1.75,3.36,3.36,0,0,0,.51-.32,2.34,2.34,0,0,0-.26.77,1.55,1.55,0,0,0,0,.8s.43-.35.43-.35a4.6,4.6,0,0,0-.09.91c0,.48.13.71.16.71a2.92,2.92,0,0,0,.29-.4,3.49,3.49,0,0,0,0,.79c.08.37.17.54.23.54s.28-.42.28-.42a4.06,4.06,0,0,0,.1.79c.09.33.26.59.32.57A1.56,1.56,0,0,0,3,32.75a3.26,3.26,0,0,1,.32.8,8.5,8.5,0,0,1-.6,2.53c-.37.64-1.18,1-1.78,1.74a3.45,3.45,0,0,0-.82,2.23c.1.08.44,0,.63-.09a4.42,4.42,0,0,1,.74-1.62,6.36,6.36,0,0,0-.63,1.58,4.55,4.55,0,0,0,0,1.56c.2,1.27.61,1.31.59,2.2a4.36,4.36,0,0,1-.14,1,5.68,5.68,0,0,1-.6.5.78.78,0,0,0-.32.64,1.93,1.93,0,0,0,.48,0,1.56,1.56,0,0,0-.55.4,1,1,0,0,0-.23.63,3.42,3.42,0,0,0,.6-.18Zm1.2-19.77a4.43,4.43,0,0,1,.09-.72c.08-.28.1.06.1.06Zm0,2.36v.57a2.77,2.77,0,0,1-.13-.57c0-.24.11,0,.11,0Zm.19-4-.29.61a3.93,3.93,0,0,1,.19-.67c.1-.28.08.05.08.05Zm.12,1.86-.06.67c0-.23,0-.47,0-.7s.08,0,.08,0Zm.16,3.67s-.07-.35-.1-.61.1,0,.1,0Zm.16-2.22a5.2,5.2,0,0,1-.1-.78c0-.36.1,0,.1,0Zm5.34-5.63A1.12,1.12,0,0,1,8.3,23a5,5,0,0,1,.65.4h.12s0,.07,0,.08l-.13,0a.76.76,0,0,1-.69.1A.56.56,0,0,1,7.94,23H7.87s-.08,0-.07,0Zm.7,5.76.27.16a1.58,1.58,0,0,1-.36-.09c-.22-.09.08-.07.08-.07Zm-.87.05L8,29a1.75,1.75,0,0,1-.46-.21c-.2-.14.06-.05.06-.05Zm-.9-.14.49.36a6,6,0,0,1-.56-.3c-.19-.12.06-.07.06-.07Zm-.85-.14.34.31a1.47,1.47,0,0,1-.42-.28c-.18-.16.07,0,.07,0Zm-.84-.55.3.65A4.63,4.63,0,0,1,5,28c-.15-.26.08-.06.08-.06ZM6.67,39.61s-.3-.36-.45-.56S6.3,39,6.3,39Zm0,.92a7.16,7.16,0,0,1-.48-.61c-.12-.18.08-.09.08-.09Zm0,.76s-.16-.19-.37-.49.06,0,.06,0Zm-.1.75a4,4,0,0,1-.41-.51c-.21-.3.06-.12.06-.12Zm-.21.64s-.17-.22-.31-.44.08-.06.08-.06Zm-.51.21.21.54c-.11-.16-.22-.33-.32-.5s.11,0,.11,0Zm-.41.49.17.44a3.72,3.72,0,0,1-.25-.44c-.1-.2.07,0,.07,0Zm-.51.46.1.48c-.08-.16-.15-.32-.22-.48s.11,0,.11,0ZM4.54,27.57l.16.66a3.19,3.19,0,0,1-.28-.66c-.07-.27.11,0,.11,0Zm-.4,2.19.15.56a5,5,0,0,1-.23-.53c-.11-.31.07,0,.07,0ZM4.06,27.1l.08.67s-.12-.4-.19-.7.1,0,.1,0Zm-.89-.5a5.52,5.52,0,0,1,.08-.69c0-.29.1.07.1.07Zm.09-1.36L3,25.85s.08-.32.19-.67.08.05.08.05Zm-.37,5.55.07.6q-.1-.3-.18-.6c-.07-.28.1,0,.1,0Zm0-2.25.07.7s-.1-.3-.2-.7.12,0,.12,0ZM2.84,25l.26-.52c.15-.27.07.09.07.09Zm.61-1.33L3,24.16s.2-.27.4-.56.06.08.06.08Zm.19,3.47a5.6,5.6,0,0,1-.12-.59c0-.25.12,0,.12,0Zm-.19,4.27.1.73a4.64,4.64,0,0,1-.2-.73c-.06-.31.09,0,.09,0Zm0-2.27.1.68a4.11,4.11,0,0,1-.21-.68c-.07-.27.1,0,.1,0ZM1.79,39.43a2.57,2.57,0,0,1,1-1.88c.28-.19.11.08.11.08a2.48,2.48,0,0,0-1.09,1.79Zm-.14,5.89s.14-.18.09,0a5.65,5.65,0,0,0-.38,4,5,5,0,0,1,.28-4Zm9.26-12.87a1.9,1.9,0,0,0,.51.3.94.94,0,0,0,.66,0,2.62,2.62,0,0,0-.3-.51,3.14,3.14,0,0,0,.89.31.68.68,0,0,0,.63-.14s-.27-.38-.27-.38a1.82,1.82,0,0,0,.7-.07,1.66,1.66,0,0,0,.82-.52,4,4,0,0,0-.56-.25A2.34,2.34,0,0,0,14.9,31a1.34,1.34,0,0,0,.53-.55,4.37,4.37,0,0,0-.52-.12,2,2,0,0,0,.76-.38,1.34,1.34,0,0,0,.37-.51h-.4a1.81,1.81,0,0,0,.53-.5c.19-.29.23-.52.2-.55s-.36.07-.36.07a1.72,1.72,0,0,1,0-.6c.08-.33.55-.39.92-1.28a2.74,2.74,0,0,0-.8-3,1.21,1.21,0,0,0-1.64.44,1.88,1.88,0,0,0-.12.3A3.29,3.29,0,0,0,15,25.93a.5.5,0,0,1,.05.6,6.73,6.73,0,0,1-.93.65c-.33.19-2.15,1.75-2.23,1.78a8.33,8.33,0,0,0-2.53-.27A4,4,0,0,1,11,31.49a2.58,2.58,0,0,0,1.7-.23,8.78,8.78,0,0,0,2.08-1.61s-1.8,2.34-3.77,2a4,4,0,0,1,0,.49C10.94,32.2,10.93,32.32,10.91,32.45ZM6.63,49.27c.19-.05.41-.06.41-.07a1,1,0,0,0-.67-.47l-.28,0a2.08,2.08,0,0,1,.18.6v.07a2,2,0,0,1,.35-.11ZM4.83,48a.59.59,0,0,1,.23,0,.84.84,0,0,1,.5.17,2.91,2.91,0,0,1,.26-.33c.14-.15.31-.27.31-.28a1,1,0,0,0-.82,0,1,1,0,0,0-.48.5Zm1.51.53c.18-.1.38-.16.38-.17A1,1,0,0,0,6,48a1.16,1.16,0,0,0-.37.07,1.47,1.47,0,0,1,.47.55,2.61,2.61,0,0,1,.28-.17Zm-.55,2.2.15.11c.15.13.29.29.3.29a1.06,1.06,0,0,0,0-.82l-.06-.1a1.52,1.52,0,0,1-.28.43l-.09.09Zm.4-.6a1.9,1.9,0,0,1,.31,0c.2,0,.4.09.41.08a1,1,0,0,0-.47-.67l-.15-.08a1.67,1.67,0,0,1-.11.66ZM5.73,23.15l.69-.26a1.2,1.2,0,0,0-.06-.17,1.5,1.5,0,0,1-.28-.16l.25.06c-.11-.3-.16-.39-.54-.47.43,0,.51.21.63.5h0c0,.11.08.2.08.2l.39-.15a.54.54,0,0,1-.11-.18.81.81,0,0,0-.37-.61c-.32-.17-1-.12-1.13.36s.44.89.44.89ZM8.1,26.66a1.68,1.68,0,0,1,.82-.38,6.61,6.61,0,0,1,1.72.31c.58.06,1-.22,1-.66a.66.66,0,0,0-.43-.64c-.05,0,.06.27,0,.54s-.38.32-.83.28-1.08-.39-1.55-.42a1.86,1.86,0,0,0-1,.33,1.23,1.23,0,0,0,0,.27c0,.24.1.35.31.37Zm1.67-1h0A2.6,2.6,0,0,0,10,26a.72.72,0,0,0,.21-.25,1,1,0,0,0,.09-.21,1.66,1.66,0,0,1-.58.11ZM8.27,23l0,0a.28.28,0,0,0,0,.15.28.28,0,0,0,.53.15A1.92,1.92,0,0,0,8.26,23Zm8.35,10.82c.09-.18.21-.35.2-.36a1,1,0,0,0-.78.23,1.83,1.83,0,0,0-.35.44l.22,0a1.54,1.54,0,0,1,.56.1,2.5,2.5,0,0,1,.15-.38Zm1.1.25a1,1,0,0,0-.81,0,1.58,1.58,0,0,0-.36.2l.33.15.32.2c.05-.06.12-.15.21-.24a4,4,0,0,1,.31-.27Zm.51,1.78c.2,0,.41,0,.42,0a1.07,1.07,0,0,0-.63-.53l-.27-.05a2.08,2.08,0,0,1,.12.32,1.48,1.48,0,0,1,.05.35l.31,0ZM18.05,35a4.1,4.1,0,0,1,.38-.18,1,1,0,0,0-.78-.26,1.51,1.51,0,0,0-.41.09,2,2,0,0,1,.48.56L18,35Zm-.28,1.66.33.06c.2.05.39.14.4.13a1,1,0,0,0-.38-.72L17.93,36a1.58,1.58,0,0,1-.17.67ZM7.84,30c1.68,1,4,4,5,4.66a4.83,4.83,0,0,0,2,1,.51.51,0,0,0,.38-.42c0-.15-.15-.31-.05-.62s.64-.69,1.65-.15a1.62,1.62,0,0,1,.88,2.12,1.14,1.14,0,0,1-.1.19,1.85,1.85,0,0,1-1.49.8c-.16,0-.51-.1-.59-.08s-.24.3-.54.4a2.3,2.3,0,0,1-.57.11s.15.21.12.23a1.32,1.32,0,0,1-.56,0,1.92,1.92,0,0,1-.66-.27,2.25,2.25,0,0,1,.14.44,1.47,1.47,0,0,1-.62-.17,1.91,1.91,0,0,1-.58-.39,1.72,1.72,0,0,1,0,.39,2,2,0,0,1-.64-.33,3,3,0,0,1-.44-.49,2,2,0,0,1,0,.49,1.33,1.33,0,0,1-.57-.39,1.78,1.78,0,0,1-.4-.64,1.86,1.86,0,0,1-.09.48,1.37,1.37,0,0,1-.52-.43,2.73,2.73,0,0,1-.28-.6,2.14,2.14,0,0,1-.11.56,1.49,1.49,0,0,1-.54-.46,2.09,2.09,0,0,1-.35-.68s0,.47-.08.48a1.28,1.28,0,0,1-.54-.41,1.76,1.76,0,0,1-.29-.58s-.08.49-.13.5-.24-.1-.46-.43a2.1,2.1,0,0,1-.3-.74,3.66,3.66,0,0,1-.18.46,1.15,1.15,0,0,1-.47-.43,2.34,2.34,0,0,1-.26-.68s-.13.45-.18.45A1,1,0,0,1,5,33.85a1.8,1.8,0,0,1-.06-.8s-.3.44-.35.43A1.76,1.76,0,0,1,4,32.22c0-2.76,1.8-3.35,3.81-2.19Zm4.63,6.81a3.84,3.84,0,0,0,.54.35l-.46-.4s-.27-.1-.09.06Zm-.9-.42a3.48,3.48,0,0,0,.47.47l-.37-.49s-.22-.17-.1,0Zm-.68-.35a4.26,4.26,0,0,0,.42.43L11,36s-.26-.17-.1,0Zm-.62-.27a2.45,2.45,0,0,0,.45.46l-.35-.49s-.3-.25-.1,0Zm-.76-.43a2.86,2.86,0,0,0,.46.46l-.37-.52s-.28-.19-.1.06Zm-.68-.44a3.56,3.56,0,0,0,.41.53l-.31-.55s-.29-.27-.11,0ZM8,34.42a6,6,0,0,0,.39.49l-.28-.49s-.29-.27-.11,0Zm-.73-.36a2.67,2.67,0,0,0,.4.55L7.39,34s-.26-.27-.09,0Zm-.78-.53c.18.27.36.5.36.5l-.27-.53s-.27-.24-.1,0Zm-.74-.44a2.36,2.36,0,0,0,.28.42l-.17-.42s-.23-.2-.12,0ZM52.42,0a4.37,4.37,0,0,0-2.25.69l.32.31.33.32.15.47.16.48h-1l-.33-.34-.33-.34A3.53,3.53,0,0,0,48.8,4a3.78,3.78,0,0,0,.86,2.22L50,5.79l.33-.37h1.15V7.35a13.23,13.23,0,0,0-5.13,1.19,10,10,0,0,0-3.49,2.81,6.13,6.13,0,0,0-.56.87,7.65,7.65,0,0,0-.44,1c-3.4-1.07-5.61-.26-7,.82A6.43,6.43,0,0,0,33,16.48a6.29,6.29,0,0,0-5.33,3.19,9.32,9.32,0,0,0-1.19,3,10.28,10.28,0,0,0,.11,3.79,11.2,11.2,0,0,0,.9,2.63L27.94,32l.46,2.83H49.59a4,4,0,0,0,1.21,1.44,2.8,2.8,0,0,0,1.63.55h0a2.8,2.8,0,0,0,1.62-.55,4.14,4.14,0,0,0,1.22-1.44H76.45L76.92,32l.46-2.83a11.2,11.2,0,0,0,.9-2.63,10.5,10.5,0,0,0,.12-3.79,9.34,9.34,0,0,0-1.2-3,6.27,6.27,0,0,0-5.33-3.19A6.31,6.31,0,0,0,70,14.06c-1.37-1.08-3.59-1.89-7-.82a7.65,7.65,0,0,0-.44-1,5.42,5.42,0,0,0-.57-.87,9.8,9.8,0,0,0-3.49-2.8,13.18,13.18,0,0,0-5.13-1.19V5.43h1.15l.34.37.34.38A3.92,3.92,0,0,0,56.06,4a3.53,3.53,0,0,0-.7-2.37L55,1.93l-.33.34h-1l.16-.48.16-.47L54.37,1l.32-.31A4.37,4.37,0,0,0,52.44,0m0,8.36c4.2,0,7.13,1.2,8.7,3.56a8.52,8.52,0,0,1,1.16,3.24,1.47,1.47,0,0,0,.23,2.68c0,.37,0,.75,0,1.12a1.76,1.76,0,0,0-.22,3.29c0,.36-.08.73-.13,1.08h0a2.33,2.33,0,0,0-.76,4.54c-.12.56-.23,1-.3,1.28h-6a3.22,3.22,0,0,0-2.67-1.7v1.16h0V27.45a3.21,3.21,0,0,0-2.68,1.69h-6c-.07-.28-.17-.71-.3-1.28a2.33,2.33,0,0,0-.76-4.53h0c-.05-.36-.09-.72-.13-1.09A1.76,1.76,0,0,0,42.31,19V17.84A1.48,1.48,0,0,0,43.22,16a1.39,1.39,0,0,0-.67-.8,8.4,8.4,0,0,1,1.16-3.25c1.58-2.36,4.5-3.55,8.7-3.55m-24,20.79a10.36,10.36,0,0,1-1.12-6.3s1.16-5.33,5.38-5.53c-.05.13-.1.27-.14.41A8.64,8.64,0,0,0,32.1,20a1.48,1.48,0,0,0,.14,2.83c.07.47.14.93.23,1.37a1.76,1.76,0,0,0,.87,3.23c.23.71.45,1.3.62,1.73Zm6.84,4L34.12,32l1.09-1.09L36.3,32Zm-.16-4c-.15-.34-.45-1-.77-1.95A1.76,1.76,0,0,0,35,24.81a1.73,1.73,0,0,0-1.53-.9h-.05c-.07-.39-.14-.78-.19-1.19A1.48,1.48,0,0,0,33.11,20a8.58,8.58,0,0,1,.36-1.87s1.24-6.25,8.13-4c-.06.24-.16.68-.2.93a1.48,1.48,0,0,0-.28,2.7c0,.43,0,.87,0,1.31a1.75,1.75,0,0,0-.87,2.32,1.78,1.78,0,0,0,1.08.95c0,.47.12.92.18,1.35a2.34,2.34,0,0,0,.9,4.3c.11.46.22.86.31,1.17Zm8.38,4.65L41.65,32l1.78-1.78L45.21,32Zm9-5.18c1.26.08,2.27,1.62,2.27,3.53s-1,3.46-2.27,3.54h-.1c-1.26-.08-2.27-1.63-2.27-3.54s1-3.45,2.27-3.53Zm9,5.18L59.65,32l1.78-1.78L63.21,32Zm.73-4.65c.09-.31.19-.72.31-1.18a2.34,2.34,0,0,0,2-2.63,2.38,2.38,0,0,0-1.09-1.66c.06-.43.12-.88.18-1.36a1.75,1.75,0,0,0,.21-3.27c0-.43,0-.87,0-1.3a1.48,1.48,0,0,0-.28-2.7c0-.26-.14-.69-.2-.94,6.89-2.24,8.13,4,8.13,4A8.58,8.58,0,0,1,71.76,20a1.49,1.49,0,0,0-.86,1.91,1.51,1.51,0,0,0,.79.82c0,.4-.12.8-.19,1.19h0a1.75,1.75,0,0,0-.86,3.28c-.32.92-.62,1.62-.77,2Zm7.5,4L68.57,32l1.09-1.09L70.75,32Zm6.83-4H70.91c.16-.43.39-1,.62-1.73a1.75,1.75,0,0,0,.86-3.23c.09-.45.17-.91.24-1.37A1.47,1.47,0,0,0,72.76,20a9.06,9.06,0,0,0-.38-2.26c0-.15-.1-.28-.15-.42,4.22.2,5.39,5.53,5.39,5.53a10.39,10.39,0,0,1-1.13,6.31ZM38.34,52.49H32.45v-.6l.64-.08a2.21,2.21,0,0,0,.51-.11.81.81,0,0,0,.41-.32.88.88,0,0,0,.12-.5V42.75l-3.74,9.56h-1c-.05-.17-.16-.5-.35-1s-.32-.9-.44-1.2l-2.75-7.48v6.62A6.33,6.33,0,0,0,26,50.69a1.31,1.31,0,0,0,.41.73,1.93,1.93,0,0,0,.69.3,3.87,3.87,0,0,0,.69.17v.6H23.13v-.6c.13,0,.34,0,.63-.1a1.73,1.73,0,0,0,.71-.28,1.12,1.12,0,0,0,.41-.72A7.87,7.87,0,0,0,25,49.34V44a2.27,2.27,0,0,0-.12-.82,1.28,1.28,0,0,0-.37-.52,1.53,1.53,0,0,0-.63-.3,3.63,3.63,0,0,0-.65-.09v-.6h5l2.68,7.16L33.17,43a7.42,7.42,0,0,0,.22-.77c0-.19.09-.39.12-.58h4.82v.6a4.35,4.35,0,0,0-.52.06l-.51.12a.6.6,0,0,0-.4.31,1.29,1.29,0,0,0-.1.48v7.7a1,1,0,0,0,.1.46.77.77,0,0,0,.4.33,2.83,2.83,0,0,0,.5.13l.54.08Zm12.93,0H45.34v-.6a7.83,7.83,0,0,0,1-.15c.37-.08.56-.18.56-.3a.66.66,0,0,0,0-.14.86.86,0,0,0-.07-.21l-.92-2.25H42.11c-.08.21-.18.46-.28.74s-.2.53-.28.75a4.37,4.37,0,0,0-.17.62,2.45,2.45,0,0,0,0,.27c0,.16.12.3.37.42a4,4,0,0,0,1.23.24v.6H38.5v-.6a3.55,3.55,0,0,0,.57-.07,2,2,0,0,0,.5-.18,2,2,0,0,0,.54-.46,2.45,2.45,0,0,0,.36-.63l1.78-4.32,2-4.77h1.53c1,2.47,1.78,4.41,2.35,5.84s1.06,2.62,1.45,3.56a1.83,1.83,0,0,0,.26.42,1.87,1.87,0,0,0,.43.36,2.3,2.3,0,0,0,.5.18,4.34,4.34,0,0,0,.52.08Zm-5.72-4.4L44,44.15l-1.55,3.93Zm18.3,4.4H59.67q-1.08-1.65-1.8-2.64c-.48-.65-1.07-1.41-1.78-2.27h-.42v3.3a1.07,1.07,0,0,0,.1.47.79.79,0,0,0,.4.32,2.54,2.54,0,0,0,.45.13l.54.09v.6h-5.8v-.6l.58-.07a1.84,1.84,0,0,0,.52-.1.7.7,0,0,0,.39-.31,1,1,0,0,0,.1-.48V43.26a1,1,0,0,0-.08-.46.73.73,0,0,0-.41-.32,3,3,0,0,0-.58-.17l-.52-.1v-.6h6.1a6,6,0,0,1,3.11.64,2.1,2.1,0,0,1,1.06,1.93A2.54,2.54,0,0,1,61,46a4.4,4.4,0,0,1-2,1.08l1.22,1.57c.46.59.94,1.19,1.44,1.81.16.2.38.45.65.74a2,2,0,0,0,.72.53l.45.09.39,0ZM58.63,44.4A2,2,0,0,0,58,42.81a2.68,2.68,0,0,0-1.73-.5h-.61v4.55h.59A2.42,2.42,0,0,0,58,46.27a2.47,2.47,0,0,0,.62-1.87Zm11.24,8.09h-6v-.6l.61,0a1.77,1.77,0,0,0,.56-.09.71.71,0,0,0,.38-.3.89.89,0,0,0,.1-.48V43.26a.91.91,0,0,0-.1-.46.66.66,0,0,0-.39-.32,3.35,3.35,0,0,0-.54-.16c-.21,0-.41-.08-.62-.11v-.6h6v.6l-.57.06a5.6,5.6,0,0,0-.59.12.65.65,0,0,0-.4.31,1.15,1.15,0,0,0-.1.48v7.7a1.07,1.07,0,0,0,.1.47.75.75,0,0,0,.4.32,3.18,3.18,0,0,0,.53.14c.21,0,.42.06.63.07Zm11.06-9.67a5.5,5.5,0,0,1,1.28,1.78A5.88,5.88,0,0,1,82.68,47a6.73,6.73,0,0,1-.4,2.26,5.24,5.24,0,0,1-1.15,1.85,5.75,5.75,0,0,1-1.86,1.25,7,7,0,0,1-4.78.06,5.5,5.5,0,0,1-1.86-1.14,5.33,5.33,0,0,1-1.27-1.77,5.6,5.6,0,0,1-.47-2.32,6.27,6.27,0,0,1,.46-2.42,5.31,5.31,0,0,1,3.13-3,6.73,6.73,0,0,1,4.6,0,5.64,5.64,0,0,1,1.85,1.11Zm-2,7.79a5.82,5.82,0,0,0,.5-1.58,11.16,11.16,0,0,0,.15-2,12.55,12.55,0,0,0-.13-1.84,6,6,0,0,0-.46-1.6,3.06,3.06,0,0,0-.87-1.12,2.13,2.13,0,0,0-1.36-.42,2.29,2.29,0,0,0-2.11,1.32A7.94,7.94,0,0,0,74,47.09,11.42,11.42,0,0,0,74.12,49a5.93,5.93,0,0,0,.5,1.58,2.89,2.89,0,0,0,.87,1.06,2.41,2.41,0,0,0,2.6,0A2.81,2.81,0,0,0,79,50.6ZM19,67.7h-5.9v-.6l.64-.08a3,3,0,0,0,.52-.11.81.81,0,0,0,.41-.32,1,1,0,0,0,.12-.51V58L11,67.52h-1c-.05-.17-.16-.5-.34-1l-.44-1.2L6.54,57.84v6.61a5.8,5.8,0,0,0,.12,1.44,1.37,1.37,0,0,0,.41.73,1.93,1.93,0,0,0,.69.3,4.34,4.34,0,0,0,.69.17v.6H3.78v-.6L4.4,67a1.63,1.63,0,0,0,.71-.28A1,1,0,0,0,5.52,66a7.09,7.09,0,0,0,.11-1.45V59.15a2.27,2.27,0,0,0-.12-.82,1.19,1.19,0,0,0-.37-.52,1.6,1.6,0,0,0-.63-.3,4.63,4.63,0,0,0-.65-.1v-.6h5L11.55,64l2.26-5.82c.09-.25.16-.5.23-.76a5.59,5.59,0,0,0,.11-.59H19v.6l-.51.07a4.37,4.37,0,0,0-.52.12.61.61,0,0,0-.39.31,1.15,1.15,0,0,0-.1.48v7.7a1,1,0,0,0,.1.46.79.79,0,0,0,.39.33,3.07,3.07,0,0,0,.5.13l.54.08Zm12.93,0H26v-.6A7.83,7.83,0,0,0,27,67c.37-.08.56-.18.56-.3s0-.1,0-.14a1.72,1.72,0,0,0-.07-.21l-.93-2.25H22.76c-.09.21-.18.45-.29.73l-.27.76a4.37,4.37,0,0,0-.17.62,2.28,2.28,0,0,0,0,.27c0,.16.12.3.37.41a4,4,0,0,0,1.23.25v.6H19.15v-.6a3.72,3.72,0,0,0,.57-.08,1.43,1.43,0,0,0,.5-.18,1.79,1.79,0,0,0,.53-.45,2.27,2.27,0,0,0,.37-.64c.59-1.43,1.19-2.87,1.78-4.31s1.25-3,2-4.77H26.4q1.5,3.69,2.36,5.84c.57,1.43,1,2.62,1.45,3.56a1.55,1.55,0,0,0,.25.41,1.39,1.39,0,0,0,.44.36,1.67,1.67,0,0,0,.5.19,4.46,4.46,0,0,0,.51.07ZM26.2,63.3l-1.58-3.94L23.07,63.3ZM37.72,68a6.56,6.56,0,0,1-2.24-.39,5.21,5.21,0,0,1-1.82-1.13,5,5,0,0,1-1.19-1.78,6.44,6.44,0,0,1,0-4.68,5.46,5.46,0,0,1,1.24-1.87A5.17,5.17,0,0,1,35.59,57a6.43,6.43,0,0,1,2.34-.43,5.77,5.77,0,0,1,1.65.23,6.75,6.75,0,0,1,1.26.5l.47-.43H42l.07,4h-.68A6.92,6.92,0,0,0,40,58.12a2.6,2.6,0,0,0-2-.85,2.39,2.39,0,0,0-2.19,1.27,7.09,7.09,0,0,0-.74,3.57,8.24,8.24,0,0,0,.25,2.21A4.5,4.5,0,0,0,36,65.8a2.64,2.64,0,0,0,1,.85,3.25,3.25,0,0,0,1.34.28,3.33,3.33,0,0,0,1.91-.58,5.65,5.65,0,0,0,1.53-1.77l.66.4a6.64,6.64,0,0,1-.76,1.21,4.2,4.2,0,0,1-1,.91,4.78,4.78,0,0,1-1.34.66,5.6,5.6,0,0,1-1.73.23Zm18.8-.3H50.64v-.6l.56,0a2.1,2.1,0,0,0,.5-.09.78.78,0,0,0,.39-.3.92.92,0,0,0,.11-.48V62.43H47.55v3.66a.94.94,0,0,0,.12.47.71.71,0,0,0,.38.32,2.17,2.17,0,0,0,.5.13,5.62,5.62,0,0,0,.57.09v.6H43.24v-.6l.56,0a3,3,0,0,0,.54-.1.69.69,0,0,0,.39-.3,1,1,0,0,0,.1-.48v-7.7a.87.87,0,0,0-.09-.45.82.82,0,0,0-.4-.33,2.79,2.79,0,0,0-.58-.18l-.52-.1v-.6h5.88v.6a5.58,5.58,0,0,0-.57.08l-.5.11a.62.62,0,0,0-.4.32,1.28,1.28,0,0,0-.1.47v3.25H52.2V58.46a1,1,0,0,0-.1-.45.83.83,0,0,0-.4-.32,3.38,3.38,0,0,0-.54-.17,3.1,3.1,0,0,0-.53-.1v-.6h5.88v.6l-.55.06a3.39,3.39,0,0,0-.55.13.61.61,0,0,0-.39.31,1,1,0,0,0-.1.47v7.7a.87.87,0,0,0,.1.47.73.73,0,0,0,.39.32,2.44,2.44,0,0,0,.53.14c.23,0,.42.07.57.08Zm12.86,0H63.45v-.6a8,8,0,0,0,1-.15c.37-.08.55-.18.55-.3a.61.61,0,0,0,0-.14.83.83,0,0,0-.06-.21L64,64.05H60.22c-.08.21-.18.45-.28.73s-.2.54-.27.76a3.15,3.15,0,0,0-.17.62,1.18,1.18,0,0,0,0,.27c0,.16.12.3.37.41a4,4,0,0,0,1.24.25v.6H56.62v-.6a3.72,3.72,0,0,0,.57-.08,1.58,1.58,0,0,0,.5-.18,2.08,2.08,0,0,0,.53-.45,2.51,2.51,0,0,0,.36-.64c.59-1.43,1.19-2.87,1.78-4.31l2-4.77h1.53c1,2.46,1.79,4.41,2.35,5.84s1.06,2.62,1.45,3.56a1.83,1.83,0,0,0,.26.42,1.61,1.61,0,0,0,.43.35,1.91,1.91,0,0,0,.5.19,4.34,4.34,0,0,0,.52.07Zm-5.72-4.4-1.57-3.94L60.54,63.3ZM82,67.7H77.79Q76.71,66,76,65.06c-.48-.65-1.08-1.41-1.78-2.27h-.42v3.3a1,1,0,0,0,.1.47.77.77,0,0,0,.39.32,2.39,2.39,0,0,0,.46.12,4.51,4.51,0,0,0,.53.09v.6h-5.8v-.6l.59-.06a2.19,2.19,0,0,0,.51-.1.78.78,0,0,0,.4-.31,1.15,1.15,0,0,0,.1-.48V58.47A1.18,1.18,0,0,0,71,58a.69.69,0,0,0-.41-.32,2.33,2.33,0,0,0-.57-.17l-.53-.1v-.6h6.1a6,6,0,0,1,3.11.64,2.1,2.1,0,0,1,1.06,1.93,2.57,2.57,0,0,1-.65,1.84,4.4,4.4,0,0,1-2,1.08l1.21,1.57c.46.59,1,1.19,1.45,1.81.16.2.37.45.65.74a1.9,1.9,0,0,0,.72.53,3.58,3.58,0,0,0,.45.09l.38,0Zm-5.22-8.09A1.91,1.91,0,0,0,76.13,58a2.67,2.67,0,0,0-1.73-.5h-.61v4.55h.59a2.42,2.42,0,0,0,1.74-.59,2.48,2.48,0,0,0,.63-1.88Zm15.05-1.67a4.94,4.94,0,0,1,1.61,1.73A5.36,5.36,0,0,1,94,62.33a5,5,0,0,1-.55,2.4A4.78,4.78,0,0,1,92,66.41a6.65,6.65,0,0,1-2.09,1,9.15,9.15,0,0,1-2.45.31H82v-.6c.17,0,.37,0,.62,0A2.11,2.11,0,0,0,83.1,67a.74.74,0,0,0,.38-.32.93.93,0,0,0,.11-.47V58.46a1.1,1.1,0,0,0-.1-.47.76.76,0,0,0-.39-.34,2.31,2.31,0,0,0-.62-.18l-.5-.06v-.6h5.79a9.5,9.5,0,0,1,2,.24,6.33,6.33,0,0,1,2,.88Zm-1.56,7.8a4.78,4.78,0,0,0,.55-1.46,9.89,9.89,0,0,0,.17-2,8.1,8.1,0,0,0-.23-2A4.44,4.44,0,0,0,90,58.84a2.93,2.93,0,0,0-1.1-1,3.19,3.19,0,0,0-1.51-.35h-.61l-.51,0v8.26a1.55,1.55,0,0,0,.07.48.87.87,0,0,0,.25.37,1.14,1.14,0,0,0,.44.25,1.87,1.87,0,0,0,.67.09,3,3,0,0,0,1.48-.32,2.57,2.57,0,0,0,1-1Zm10.84,2H95v-.6l.61,0a1.82,1.82,0,0,0,.56-.09.74.74,0,0,0,.38-.3,1,1,0,0,0,.1-.48V58.47a1,1,0,0,0-.1-.46.73.73,0,0,0-.39-.32,3.47,3.47,0,0,0-.55-.16c-.24-.05-.44-.09-.62-.11v-.6h6v.6l-.58.07a2.85,2.85,0,0,0-.58.12.61.61,0,0,0-.4.3,1.15,1.15,0,0,0-.1.48v7.7a1,1,0,0,0,.1.48.8.8,0,0,0,.4.32,3.16,3.16,0,0,0,.53.13,6.17,6.17,0,0,0,.62.08ZM14.57,75H90.28" style="fill:#040405"/><g style="clip-path:url(#a)"><g style="clip-path:url(#b)"><path d="M44.62,95.37H26.2V70H44.62Z" style="fill:#388137;fill-rule:evenodd"/><path d="M63,95.37H44.6V70H63Z" style="fill:#f1f1f1;fill-rule:evenodd"/><path d="M81.42,95.37H63V70H81.42Z" style="fill:#b2152c;fill-rule:evenodd"/></g></g></svg>