<svg xmlns="http://www.w3.org/2000/svg" width="23" height="21" viewBox="0 0 23 21">
  <path d="M7.27404692,0 L7.341652,0 C9.28882698,0.00854349951 11.2215152,0.825004888 12.5667449,2.23616813 C13.3653763,3.06451613 13.9628641,4.08472141 14.2969892,5.18571848 C14.7076344,6.5257478 14.7167351,7.98445748 14.3246628,9.33005865 C13.9645357,10.5861388 13.2604399,11.7421114 12.3039394,12.6330499 C14.4955327,15.3032649 16.687869,17.9729228 18.8792766,20.6433236 C19.0971359,20.9529326 18.9758553,21.3760215 18.7453666,21.6430987 C18.4541447,21.98261 18.0713587,22.2717889 17.6252395,22.3616813 L17.4045943,22.3616813 C17.2368817,22.3301075 17.0648974,22.2567449 16.9640469,22.1129912 C14.9730401,19.2791496 12.9805474,16.446608 10.9893548,13.6129521 C9.80087977,14.3066471 8.41497556,14.6578592 7.03965787,14.603998 C5.74346041,14.5560802 4.46212121,14.1560215 3.36985337,13.4563832 C2.37416422,12.8211926 1.53950147,11.9376833 0.957986315,10.9098631 C0.334868035,9.8155523 0.003714565,8.55817204 0.00427174976,7.29912023 C0.00705767351,5.97766373 0.374428152,4.65917889 1.05772239,3.52809384 C1.65446725,2.53556207 2.49414467,1.6916129 3.48147605,1.08669599 C4.61460411,0.386129032 5.94237537,0.00910068426 7.27404692,0 Z M7.13735093,0.619217986 C6.23043988,0.643176931 5.32947214,0.855650049 4.50576735,1.23546432 C3.49447703,1.69904203 2.60446725,2.42226784 1.94290323,3.31654936 C1.191261,4.32672532 0.732140762,5.55216031 0.639276637,6.80824047 C0.542883675,8.06506354 0.818132942,9.34528837 1.41134897,10.4566862 C1.94531769,11.462219 2.74432063,12.3241838 3.70397849,12.9361584 C4.84249267,13.6666276 6.20629521,14.042913 7.5585826,13.9890518 C8.79274682,13.9428055 10.0114956,13.5457185 11.0367155,12.8572239 C11.9999022,12.2129326 12.7877615,11.3110362 13.3,10.2718866 C13.7791789,9.30795699 14.02174,8.22664712 13.9946237,7.15035191 C13.9702933,6.0543695 13.666999,4.9669306 13.1285728,4.01265885 C12.5923754,3.06024438 11.8160313,2.24508309 10.8920332,1.6613392 C9.78026393,0.95315738 8.45546432,0.583929619 7.13735093,0.619217986 Z M2.05192571,9.25038123 C2.24935484,9.1844477 2.44659824,9.11795699 2.64384164,9.051652 C3.01622678,10.1714076 3.79777126,11.1552102 4.8242913,11.7430401 C5.87904203,12.3602151 7.20012708,12.5266276 8.3613001,12.1250831 C8.42983382,12.3215836 8.49168133,12.5203128 8.56095797,12.7164418 C7.83067449,12.9656891 7.03947214,13.0293939 6.27780059,12.9101564 C5.28564027,12.7571163 4.34882698,12.2959531 3.6040567,11.6254741 C2.8914174,10.9867546 2.35373412,10.1578495 2.05192571,9.25038123 Z" transform="rotate(-14 10 7.109)"/>
</svg>
