<svg xmlns="http://www.w3.org/2000/svg" width="21" height="17" viewBox="0 0 21 17">
  <path fill="#00AEEF" d="M18.2928933,7 L11.6464466,0.353552367 C11.4511845,0.158290208 11.4511845,-0.158292281 11.6464466,-0.353554414 C11.8417088,-0.548816547 12.1582913,-0.548816526 12.3535534,-0.353554367 L19.8535534,7.14644663 C20.0488155,7.34170878 20.0488155,7.65829125 19.8535534,7.85355339 L12.3535534,15.3535534 C12.1582912,15.5488155 11.8417088,15.5488155 11.6464466,15.3535534 C11.4511845,15.1582912 11.4511845,14.8417088 11.6464466,14.6464466 L18.2928932,8 L0,8 C-0.276142375,8 -0.5,7.77614237 -0.5,7.5 C-0.5,7.22385763 -0.276142375,7 0,7 L18.2928933,7 Z" transform="translate(1 1)"/>
</svg>
