<svg id="Слой_1" data-name="Слой 1" xmlns="http://www.w3.org/2000/svg" viewBox="0 0 92.03 141.28">
  <defs>
    <style>
      .cls-1, .cls-2, .cls-3 {
        fill: #b82437;
      }

      .cls-1, .cls-2 {
        stroke: #fff;
        stroke-miterlimit: 10;
      }

      .cls-1 {
        stroke-width: 0.5px;
      }

      .cls-2 {
        stroke-width: 0.25px;
      }

      .cls-4, .cls-5, .cls-6 {
        isolation: isolate;
      }

      .cls-5, .cls-6 {
        font-size: 13px;
      }

      .cls-5 {
        font-family: Roboto-Regular, Roboto;
      }

      .cls-6 {
        font-family: Roboto-Bold, Roboto;
        font-weight: 700;
      }
    </style>
  </defs>
  <title>footer_logo</title>
  <g id="Group_47" data-name="Group 47">
    <g id="Group_46" data-name="Group 46">
      <path id="Path_115" data-name="Path 115" class="cls-1" d="M58,20.1c-2.43,2.89-1.67,3.83-2.13,1.53-.14-.71-2,0-2.21.33C52.09,24.25,51,25,49.18,27c2.65-3-4.09,7.95-3.82,4.67.08-.88-2-.2-2.29.33-1,2-1.92,4.11-2.77,6.22a77.86,77.86,0,0,0,.11-7.94c0-.69-2,0-2.21.34-2.33,3.57-4.87,7.4-7.39,11.41-.12-.57-.24-1.14-.38-1.7-3.78-15.09-19.56,2.69-18.37,11,.09.65,2.41.13,2.3-.62C13.82,46.93,21,33.62,25.44,36.43,27.93,38,28.66,41.79,29,45.06c-9.81,16-18.61,34.73-13.17,52.23.23.76,1.9,0,2.21-.33,6.18-6.12,8.33-16.94,10.36-25,2.11-8.4,3.95-17.95,2.93-26.83.43-.74.86-1.49,1.3-2.22,2-3.43,4.17-6.77,6.32-10.1-2.67,4.13-1.77,13.84-2.64,19.1-.13.76,2.14.33,2.29-.34A102.42,102.42,0,0,1,42,39.4a18,18,0,0,0,1-4.08,22.12,22.12,0,0,0,.1,2.44c.06.74,2,0,2.21-.33,2.41-3,4.11-8.57,6.71-10.95,2.41-2.2,1.75-3.58,2.24-1.12.14.7,2,0,2.21-.33,3.11-4.74,2.1,1.78,3.37,5.29.26.7,2.53,0,2.3-.62a32.62,32.62,0,0,1-1.86-9.92C60.22,19,58.28,19.83,58,20.1ZM21.89,86.05c-.68,1.86-1.49,3.67-2.33,5.46a27.27,27.27,0,0,1-2.22,3.85q-1.65,2.43-.08-1.33c-2.71-8.71.42-18.79,3.32-27a116.69,116.69,0,0,1,8.58-18.2C29.71,61.22,26.09,74.5,21.89,86.05Z" transform="translate(0 -0.93)"/>
      <path id="Path_116" data-name="Path 116" class="cls-2" d="M65.83,1.7C60.3-.22,54.56,2.3,51.35,6.93c-.63.9,1.7.73,2.15.08C58.41-.06,67.81,2.06,71.68,9a10.31,10.31,0,0,1-.3,10c-1,1.83-4.7,6.8-7,4.3-1.86-2,1.68-4.56,3-5.22s.11-1.53-.93-1c-2.14,1.09-4.21,2.46-4.72,5a3,3,0,0,0,2.55,3.31l.3,0c5.9.26,10.41-6.63,10.67-11.91C75.46,7.83,70.78,3.42,65.83,1.7Z" transform="translate(0 -0.93)"/>
      <path id="Path_117" data-name="Path 117" class="cls-2" d="M79.23,7.05c0-1-2.3-.52-2.3.27a67.76,67.76,0,0,0,.76,12.32c.15.82,2.46.26,2.3-.62A65.73,65.73,0,0,1,79.23,7.05Z" transform="translate(0 -0.93)"/>
    </g>
    <path id="Path_118" data-name="Path 118" class="cls-3" d="M79,1.72c-1.17,0-2.59.29-2.8,1.64-.17,1.09,2.17.74,2.32-.21l-.4.14c.21,0,.42,0,.63,0,1.27,0,1.81-1.56.25-1.55" transform="translate(0 -0.93)"/>
  </g>
  <g id="Signore_Mario_Machardi" data-name="Signore Mario Machardi" class="cls-4">
    <text class="cls-5" transform="translate(24 121.75)">Signore</text>
    <text class="cls-6" transform="translate(0 137.75)">Mario Machardi</text>
  </g>
</svg>
