<?xml version="1.0" encoding="utf-8"?><svg xmlns="http://www.w3.org/2000/svg" xmlns:xlink="http://www.w3.org/1999/xlink"><symbol viewBox="0 0 68.385 96.962" id="footer_logo" xmlns="http://www.w3.org/2000/svg"><g data-name="Group 47"><g data-name="Group 46" stroke-miterlimit="10"><path data-name="Path 115" d="M46.302 19.189c-2.433 2.885-1.672 3.824-2.131 1.532-.142-.717-1.963-.02-2.209.33-1.611 2.286-2.746 3.008-4.522 5.068 2.653-2.976-4.092 7.953-3.817 4.666.072-.882-2.039-.193-2.29.337a83.751 83.751 0 0 0-2.774 6.216 75.936 75.936 0 0 0 .106-7.936c-.025-.693-1.992 0-2.208.331-2.329 3.574-4.867 7.4-7.392 11.415a34.005 34.005 0 0 0-.375-1.7C14.907 24.354-.87 42.139.321 50.485c.09.648 2.406.134 2.3-.617-.546-3.854 6.671-17.156 11.075-14.35 2.49 1.586 3.223 5.356 3.51 8.63C7.396 60.199-1.402 78.874 4.042 96.381c.231.756 1.895-.02 2.208-.331 6.183-6.125 8.331-16.945 10.361-25.02 2.112-8.4 3.946-17.954 2.923-26.833.432-.743.864-1.486 1.3-2.223 2.016-3.423 4.172-6.763 6.322-10.1-2.664 4.135-1.769 13.841-2.639 19.1-.126.768 2.144.33 2.29-.337a102.223 102.223 0 0 1 3.435-12.147 18.278 18.278 0 0 0 .985-4.085 24.152 24.152 0 0 0 .1 2.446c.061.732 1.974-.037 2.209-.33 2.417-3.028 4.108-8.578 6.712-10.951 2.414-2.2 1.75-3.579 2.241-1.125.14.705 1.969.034 2.209-.331 3.11-4.738 2.1 1.785 3.372 5.293.255.7 2.532.015 2.3-.617a32.707 32.707 0 0 1-1.862-9.925c-.034-.738-1.974.053-2.206.324zm-36.153 65.95c-.677 1.863-1.491 3.667-2.326 5.461a27.989 27.989 0 0 1-2.226 3.845q-1.647 2.432-.081-1.323c-2.71-8.719.426-18.79 3.327-27.04a115.864 115.864 0 0 1 8.575-18.2c.548 12.43-3.067 25.701-7.269 37.257z"/><path data-name="Path 116" d="M54.093.788c-5.536-1.92-11.272.6-14.485 5.229-.626.9 1.7.727 2.151.082 4.909-7.068 14.306-4.947 18.183 2a10.34 10.34 0 0 1-.3 10c-.976 1.829-4.707 6.8-7.038 4.3-1.852-1.983 1.68-4.563 2.965-5.217 1.417-.723.114-1.539-.926-1.009-2.14 1.091-4.214 2.46-4.726 4.963a2.956 2.956 0 0 0 2.854 3.337c5.893.268 10.407-6.628 10.67-11.909.282-5.646-4.401-10.059-9.348-11.776z"/><path data-name="Path 117" d="M67.492 6.134c0-1-2.305-.512-2.305.276a67.8 67.8 0 0 0 .761 12.316c.152.825 2.463.26 2.3-.617a66 66 0 0 1-.756-11.975z"/></g><path data-name="Path 118" d="M67.219.806c-1.168.009-2.588.292-2.8 1.641-.171 1.087 2.171.741 2.323-.212l-.4.142c.209-.015.421-.02.631-.018 1.265-.008 1.81-1.562.241-1.552"/></g></symbol><symbol viewBox="0 0 94 34" id="footer_logo-text" xmlns="http://www.w3.org/2000/svg"><text data-name="Signore Mario Machardi" transform="translate(47 14)" font-size="13" font-family="Roboto-Regular, Roboto"><tspan x="-22.017" y="0">Signore</tspan><tspan font-family="Roboto-Bold, Roboto" font-weight="700"><tspan x="-46.014" y="16">Mario Machardi</tspan></tspan></text></symbol><symbol viewBox="0 0 104.855 75" id="header_logo" xmlns="http://www.w3.org/2000/svg"><path data-name="Path 247" d="M56.923 20.522h-3.484v-.353c.1-.009.228-.024.378-.046a1.255 1.255 0 0 0 .306-.067.49.49 0 0 0 .24-.185.561.561 0 0 0 .072-.3v-4.8l-2.21 5.65h-.571c-.028-.1-.095-.3-.2-.594s-.194-.534-.262-.711l-1.626-4.417v3.909a3.631 3.631 0 0 0 .075.854.779.779 0 0 0 .242.428 1.193 1.193 0 0 0 .407.182 2.969 2.969 0 0 0 .41.1v.353h-2.764v-.353c.075-.009.2-.029.369-.061a1.037 1.037 0 0 0 .419-.165.665.665 0 0 0 .245-.428 4.361 4.361 0 0 0 .064-.858v-3.186a1.363 1.363 0 0 0-.073-.482.674.674 0 0 0-.217-.306.934.934 0 0 0-.372-.182 2.954 2.954 0 0 0-.385-.054v-.353h2.963l1.585 4.235 1.337-3.437a4.521 4.521 0 0 0 .13-.454 2.486 2.486 0 0 0 .069-.344h2.848v.353a2.874 2.874 0 0 0-.3.037 2.1 2.1 0 0 0-.3.072.365.365 0 0 0-.234.185.706.706 0 0 0-.057.281v4.554a.61.61 0 0 0 .057.274.463.463 0 0 0 .234.193 1.339 1.339 0 0 0 .3.078c.138.023.243.04.32.049zm33.019 3a1.634 1.634 0 0 0-.271-.462 1.025 1.025 0 0 0-.739-.352c0 .009.093.2.147.39.026.092.044.174.058.243a1.235 1.235 0 0 1 .805.178zm-1-.141a1.506 1.506 0 0 1 .158-.035 1.7 1.7 0 0 0-.284-.22 1.01 1.01 0 0 0-.812-.093c0 .009.15.155.265.321a3.3 3.3 0 0 1 .182.3 1.356 1.356 0 0 1 .206-.145 1.374 1.374 0 0 1 .28-.131zm-.535.309a1.362 1.362 0 0 0-.208-.076 1.025 1.025 0 0 0-.809.121c0 .011.187.112.34.242a3.183 3.183 0 0 1 .272.26 1.968 1.968 0 0 1 .4-.55zm-.6.624a1.016 1.016 0 0 0-.684.448c0 .009.216.023.408.078.089.024.164.049.228.073a2.969 2.969 0 0 1 .214-.613 1.653 1.653 0 0 0-.174.011zm-.219.748a1.02 1.02 0 0 0-.459.678c.008.006.208-.063.407-.086a2.71 2.71 0 0 1 .135-.014 3.455 3.455 0 0 1 .073-.659 1.546 1.546 0 0 0-.164.078zm.318 20.736a1.396 1.396 0 0 0-.1.055 1.013 1.013 0 0 0-.46.676c.006.006.208-.061.407-.086.069-.008.132-.012.187-.017a1.806 1.806 0 0 1-.024-.124 1.7 1.7 0 0 1-.017-.506zm.274-.693a1.81 1.81 0 0 0-.173-.017 1.018 1.018 0 0 0-.753.321c0 .009.208.06.389.148a2.971 2.971 0 0 1 .278.151 1.574 1.574 0 0 1 .251-.605zm.541-.514a1.6 1.6 0 0 0-.246-.125 1.014 1.014 0 0 0-.817.037c0 .009.174.129.312.275a2.949 2.949 0 0 1 .242.283l.041-.052a2 2 0 0 1 .461-.42zm.753-.252a1.576 1.576 0 0 0-.271-.252 1.018 1.018 0 0 0-.8-.164c0 .009.138.168.237.343.064.115.11.211.144.288a1.541 1.541 0 0 1 .682-.218zm.727.28a1.041 1.041 0 0 0-.145-.681 1.009 1.009 0 0 0-.705-.413c-.006.008.075.2.112.4a2.949 2.949 0 0 1 .05.411 1.012 1.012 0 0 1 .35.049.7.7 0 0 1 .33.231zm6.447-.618a7.7 7.7 0 0 1 1.638-.187 4.364 4.364 0 0 1-.531-1.245 6.111 6.111 0 0 1-.15-.756 4.703 4.703 0 0 0-.356.119l-.3.707.167-.659c-.107.04-.191.073-.314.129l-.271.6.153-.551a3.9 3.9 0 0 0-.373.19l-.234.6.132-.538a3.079 3.079 0 0 0-.343.226l-.222.684.127-.61-.051.04a6.046 6.046 0 0 0-.226.194l-.187.606.081-.511c-.1.092-.162.151-.243.234l-.125.468.052-.393a5.837 5.837 0 0 0-.531.61 5.075 5.075 0 0 1 1.163-1.266 4.752 4.752 0 0 1 1.888-.953 6.573 6.573 0 0 1 .286-2.853 17.758 17.758 0 0 1-.627-.646 14.853 14.853 0 0 0-2.441.924 3.978 3.978 0 0 0-2.545 3.015c-.116.979.468 1.857.344 2.555s-1.037 1.623-1.768 1.534-.427-.7-.586-1.372-1.26-.678-1.95.159a1.9 1.9 0 0 0 .73 2.753 2.433 2.433 0 0 0 1.9.388s-.106.3-.073.315a1.118 1.118 0 0 0 .63-.029 1.877 1.877 0 0 0 .641-.428s-.228.476-.185.512a.833.833 0 0 0 .679-.22 1.731 1.731 0 0 0 .447-.584 2.885 2.885 0 0 0-.006.54 1.088 1.088 0 0 0 .584-.439 2.047 2.047 0 0 0 .3-.656s.083.474.138.476.239-.167.338-.494a3.34 3.34 0 0 0 .113-.748 3.509 3.509 0 0 0 .307.569 1.03 1.03 0 0 0 .3-.595 1.521 1.521 0 0 0-.084-.676s.294.349.335.335a.752.752 0 0 0 .245-.665 6.009 6.009 0 0 1-.05-.776 2.32 2.32 0 0 1 1.046-.635zm-1.943 1.084a4.344 4.344 0 0 1-4.035 2.557 4.763 4.763 0 0 0 2.507-.849 4.668 4.668 0 0 0 1.444-1.666c.083-.167.077-.044.077-.044zm10.152 1.722a1.037 1.037 0 0 0-.229-.623 1.524 1.524 0 0 0-.551-.4 1.92 1.92 0 0 0 .474-.014.753.753 0 0 0-.315-.635 5.853 5.853 0 0 1-.6-.5 4.2 4.2 0 0 1-.145-.961c-.02-.895.39-.938.592-2.2a4.662 4.662 0 0 0-.027-1.562 6.515 6.515 0 0 0-.635-1.586 4.472 4.472 0 0 1 .746 1.626c.182.063.531.168.624.093a3.375 3.375 0 0 0-.821-2.232c-.6-.777-1.406-1.1-1.776-1.744a8.514 8.514 0 0 1-.6-2.527 2.968 2.968 0 0 1 .323-.8 1.424 1.424 0 0 0 .225.277c.058.023.232-.239.321-.564a3.794 3.794 0 0 0 .1-.792s.213.41.277.416.156-.173.231-.543a3.39 3.39 0 0 0 .046-.785 2.781 2.781 0 0 0 .283.4c.034 0 .167-.226.167-.71a4.894 4.894 0 0 0-.092-.912s.395.379.43.356a1.6 1.6 0 0 0 .026-.808 2.041 2.041 0 0 0-.26-.766 3.259 3.259 0 0 0 .514.317 1.373 1.373 0 0 0-.1-.743 3.472 3.472 0 0 0-.4-.756 4.181 4.181 0 0 0 .6.179 1.523 1.523 0 0 0-.15-.693 3.053 3.053 0 0 0-.462-.623 2.762 2.762 0 0 0 .508.034c.035-.029-.075-.3-.246-.56a2.193 2.193 0 0 0-.515-.49 2.34 2.34 0 0 0 .514-.1c.029-.046-.271-.387-.508-.554a4.626 4.626 0 0 0-.56-.324 2.366 2.366 0 0 0 .456-.19 1.453 1.453 0 0 0-.548-.462 2.9 2.9 0 0 0-.652-.242s.408-.26.385-.3a1.546 1.546 0 0 0-.7-.277 3.327 3.327 0 0 0-.826-.052 2.307 2.307 0 0 0 .266-.375 2.242 2.242 0 0 0-1.045-.057 3.672 3.672 0 0 0-.575.116.482.482 0 0 1 .032.107 1.1 1.1 0 0 1-.473.942l-.034-.1-1.147-.422-.072-.021a.488.488 0 0 0 .095-.156c0-.014.008-.034.012-.057.008-.04.02-.092.037-.148a4.566 4.566 0 0 0-2.509.925c-.138.069-1.6.41-1.811.542s.023.491.023.491c.06-.162.454-.286.448-.079 0 .034-.135-.053-.234-.028a.388.388 0 0 0-.231.2.531.531 0 0 0 .017.242 1.464 1.464 0 0 0 2.189.749c.353-.19.586-.739.777-.5a3.457 3.457 0 0 1 .421 1.453.4.4 0 0 1-.444.433c-.26.006-.883-.081-1.276-.115s-.508.057-.5.281.462.751.593.722.6-.537.918-.439a9.162 9.162 0 0 1 1 .5 1.651 1.651 0 0 0 2.509-1.4c.1 1.38-1.224 2.154-2.726 1.475-.788.3-3.448 1.536-3.263 4.318a5.119 5.119 0 0 0 .066.525 16.071 16.071 0 0 1 2.946-2.631 3.376 3.376 0 0 1 1.81-.43 12.271 12.271 0 0 1 1.375 1.022 2.011 2.011 0 0 1 .141 2.987h-.009c-.029 0-.073 0-.265-.257a1.438 1.438 0 0 1-.083.584c-.127.291-.384.563-.489.563h-.009c-.035 0-.076-.009-.165-.269a1.877 1.877 0 0 1-.213.465 1.087 1.087 0 0 1-.525.457h-.017c-.034-.006-.055-.012-.155-.281a2.041 2.041 0 0 1-.252.543c-.213.309-.415.451-.511.451h-.008c-.04 0-.081-.009-.145-.306a1.608 1.608 0 0 1-.217.37 1.321 1.321 0 0 1-.59.436h-.023c-.034-.008-.07-.017-.1-.24a1.867 1.867 0 0 1-.257.419 3.172 3.172 0 0 1-.216.228 18.664 18.664 0 0 0 1.9 2.155 6.359 6.359 0 0 0-.139 3.686c.67 2.509 2.535 2.466 3.255 3.6.691 1.091 1.046 2.542.379 2.856s-.733-.366-1.225-.852-1.427.1-1.568 1.172a1.9 1.9 0 0 0 2.082 1.944 4.252 4.252 0 0 0 2.287-.8s.148.284.179.271a1.114 1.114 0 0 0 .411-.479 1.882 1.882 0 0 0 .129-.76s.19.493.246.486a.84.84 0 0 0 .307-.645 1.728 1.728 0 0 0-.119-.726s.356.393.387.376a1.086 1.086 0 0 0 .083-.727 2.08 2.08 0 0 0-.269-.67s.4.266.439.226a.728.728 0 0 0-.127-.584 3.312 3.312 0 0 0-.465-.6 3.558 3.558 0 0 0 .61.166zm-2.014-20.594s.017-.338.095-.057a3.95 3.95 0 0 1 .095.719zm.315 3.019a2.822 2.822 0 0 1-.125.572v-.572s.131-.231.117-.002zm-.22-4.058a3.984 3.984 0 0 1 .19.675l-.285-.613s-.03-.341.087-.064zm-.13 1.891a5.706 5.706 0 0 1-.034.705l-.061-.678s.074-.301.087-.029zm-.251 3.088s.125-.265.1 0-.1.615-.1.615zm-.156-2.383s.113-.36.1 0a5.25 5.25 0 0 1-.1.771zm-5.389-4.809a.42.42 0 0 1-.072.012.559.559 0 0 1-.286.557.748.748 0 0 1-.69-.1.4.4 0 0 1-.128.031c-.049 0-.047-.08-.031-.081a1.118 1.118 0 0 0 .127 0c.072-.009.411-.312.645-.4a1.134 1.134 0 0 1 .483-.061c.007.005-.024.029-.056.04zm-.567 5.782a1.386 1.386 0 0 1-.364.093l.277-.156s.29-.022.079.061zm.854.026a1.735 1.735 0 0 1-.459.208l.382-.255s.256-.088.068.045zm.895-.119a5.436 5.436 0 0 1-.557.3l.482-.367s.242-.055.066.065zm.863-.17a1.772 1.772 0 0 1-.421.277l.336-.311s.241-.127.076.032zm.847-.522a5.036 5.036 0 0 1-.392.583l.3-.644s.221-.199.083.059zm-1.335 11.015s.22-.121.08.073-.439.558-.439.558zm0 .852s.2-.087.086.095a7.609 7.609 0 0 1-.485.606zm-.06.921s.277-.243.066.052-.369.483-.369.483zm.147.659s.263-.18.057.122a3.829 3.829 0 0 1-.411.509zm.087.774s.217-.151.078.06-.31.433-.31.433zm.385.742a4.67 4.67 0 0 1-.32.5l.208-.537s.223-.19.107.034zm.385.451c-.095.2-.251.447-.251.447l.164-.447s.177-.201.082-.002zm.538.465a5.1 5.1 0 0 1-.216.48l.1-.48s.163-.158.111-.002zm.4-16.275a3.353 3.353 0 0 1-.275.667l.156-.667s.17-.267.112-.002zm.356 2.221a4.576 4.576 0 0 1-.225.532l.147-.563s.176-.269.072.029zm.109-2.709c-.063.289-.187.7-.187.7l.078-.678s.165-.315.102-.024zm.6-1.1s.054-.366.106-.075.076.69.076.69zm.182-.8c.113.349.19.673.19.673l-.28-.613s-.029-.407.084-.06zm.393 5.607a5.494 5.494 0 0 1-.182.6l.069-.6s.167-.273.107 0zm0-2.242c-.1.388-.2.691-.2.691l.07-.691s.216-.391.121 0zm-.39-3.956s-.078-.356.067-.084.262.517.262.517zm-.21-.991c.2.3.4.558.4.558l-.467-.466s-.143-.385.059-.092zm-.259 3s.148-.281.119-.026a4.566 4.566 0 0 1-.119.589zm.3 4.829a5.3 5.3 0 0 1-.2.736l.095-.736s.14-.303.092 0zm.009-2.267a6.1 6.1 0 0 1-.208.682l.095-.682s.151-.26.101 0zm.467 8.471s-.176-.271.11-.08a2.616 2.616 0 0 1 .971 1.875 2.48 2.48 0 0 0-1.094-1.795zm1.508 11.692a5.68 5.68 0 0 0-.379-4.043c-.055-.139.092.038.092.038a4.968 4.968 0 0 1 .274 4.005zm-9.6-17.234a4.064 4.064 0 0 1 0-.491c-1.967.379-3.769-1.953-3.769-1.953a8.953 8.953 0 0 0 2.079 1.609 2.529 2.529 0 0 0 1.7.225 3.993 3.993 0 0 1 1.586-2.8 8.276 8.276 0 0 0-2.525.271c-.081-.031-1.9-1.591-2.23-1.781a6.446 6.446 0 0 1-.936-.652.511.511 0 0 1 .049-.6 3.183 3.183 0 0 0 .593-1.615 1.2 1.2 0 0 0-1.761-.74 2.736 2.736 0 0 0-.8 3.015c.37.9.843.953.924 1.28a1.6 1.6 0 0 1 .032.6s-.315-.1-.352-.067.006.26.193.551a1.952 1.952 0 0 0 .538.5 2.027 2.027 0 0 0-.4 0 1.273 1.273 0 0 0 .367.511 2.147 2.147 0 0 0 .754.381 4.22 4.22 0 0 0-.515.119 1.292 1.292 0 0 0 .526.546 2.288 2.288 0 0 0 .915.225 3.307 3.307 0 0 0-.558.249 1.6 1.6 0 0 0 .817.518 1.782 1.782 0 0 0 .694.073s-.286.343-.269.381a.72.72 0 0 0 .627.139 3.223 3.223 0 0 0 .89-.314 3.772 3.772 0 0 0-.3.512.959.959 0 0 0 .658-.035 1.958 1.958 0 0 0 .512-.307 1.727 1.727 0 0 1-.051-.35zm4.677 17.3l.006-.066a1.954 1.954 0 0 1 .177-.6 1.519 1.519 0 0 0-.277.024 1.012 1.012 0 0 0-.673.465c0 .009.216.017.411.067a2.968 2.968 0 0 1 .344.108zm.964-1.93a1.014 1.014 0 0 0-.817.024c0 .009.171.132.307.28a2.786 2.786 0 0 1 .263.324.928.928 0 0 1 .506-.17.65.65 0 0 1 .225.04 1.037 1.037 0 0 0-.496-.503zm-.748 1.2a1.564 1.564 0 0 1 .471-.551 1.6 1.6 0 0 0-.364-.07 1.01 1.01 0 0 0-.766.288c0 .009.2.069.382.165a2.983 2.983 0 0 1 .265.163zm.19 1.943a1.724 1.724 0 0 1-.274-.425c-.02.032-.038.066-.057.1a1.024 1.024 0 0 0-.032.817c.011 0 .144-.162.3-.288.054-.044.1-.081.148-.115a.548.548 0 0 1-.098-.093zm-.41-1.158a1.469 1.469 0 0 0-.155.08 1.018 1.018 0 0 0-.468.671c.008.006.21-.06.408-.081a3.66 3.66 0 0 1 .317-.02 1.563 1.563 0 0 1-.119-.653zm1-27.153c-.086-.488-.809-.532-1.129-.363a.8.8 0 0 0-.367.609.575.575 0 0 1-.109.182l.387.148s.029-.092.078-.206c.124-.291.208-.491.633-.5-.375.083-.431.179-.54.476l.249-.064c0 .027-.2.125-.283.162l-.054.167.688.265s.53-.39.438-.88zm-2.492 4.017a1.211 1.211 0 0 0-.021-.268 1.79 1.79 0 0 0-.994-.33c-.463.023-1.1.384-1.545.418s-.731 0-.832-.278.012-.52-.037-.546a.668.668 0 0 0-.437.644c-.008.44.421.714 1 .655a7.138 7.138 0 0 1 1.722-.306 1.658 1.658 0 0 1 .828.376c.191-.026.291-.138.307-.369zm-2.56-.766a1.372 1.372 0 0 0 .086.217.745.745 0 0 0 .208.245 3.212 3.212 0 0 0 .306-.358h-.035a1.541 1.541 0 0 1-.574-.108zm1.611-2.23a.29.29 0 0 0 .538-.15.3.3 0 0 0-.038-.142l-.046.015a2.2 2.2 0 0 0-.464.273zm-7.752 10.937a1.7 1.7 0 0 1 .557-.1 1.039 1.039 0 0 1 .225.023 1.612 1.612 0 0 0-.35-.439 1.009 1.009 0 0 0-.785-.232c0 .008.122.179.2.362a2.945 2.945 0 0 1 .143.381zm-.938.136c.092.1.162.182.213.248a2.407 2.407 0 0 1 .324-.208 3.09 3.09 0 0 1 .323-.147 1.544 1.544 0 0 0-.353-.2 1.009 1.009 0 0 0-.817.032c-.011.003.163.123.301.27zm-.508 1.565a1.6 1.6 0 0 1 .174-.668 1.562 1.562 0 0 0-.277.05 1.011 1.011 0 0 0-.624.528c0 .009.216 0 .415.028.119.014.224.037.303.057zm.2-.72a1.929 1.929 0 0 1 .477-.563 1.6 1.6 0 0 0-.411-.095 1.013 1.013 0 0 0-.772.269c0 .009.2.073.378.173a3.086 3.086 0 0 1 .319.211zm-.2.789a1.558 1.558 0 0 0-.19.125 1.009 1.009 0 0 0-.384.722c.008 0 .2-.084.395-.13.136-.031.249-.049.333-.06a1.516 1.516 0 0 1-.164-.662zm13.9-3.792a1.794 1.794 0 0 1-.534 1.266c-.052.006-.355-.43-.355-.43a1.8 1.8 0 0 1-.058.8 1.05 1.05 0 0 1-.427.522c-.052-.006-.179-.457-.179-.457a2.04 2.04 0 0 1-.265.684 1.078 1.078 0 0 1-.468.425 3.6 3.6 0 0 1-.181-.451 2.192 2.192 0 0 1-.3.74c-.222.324-.41.427-.459.421s-.132-.5-.132-.5a1.9 1.9 0 0 1-.292.586 1.256 1.256 0 0 1-.543.408c-.046-.011-.076-.479-.076-.479a2.049 2.049 0 0 1-.352.681 1.528 1.528 0 0 1-.537.459 2.247 2.247 0 0 1-.113-.561 2.382 2.382 0 0 1-.274.6 1.406 1.406 0 0 1-.525.43 1.881 1.881 0 0 1-.093-.476 1.88 1.88 0 0 1-.392.639 1.276 1.276 0 0 1-.574.384c-.044-.014 0-.485 0-.485a2.5 2.5 0 0 1-.442.485 1.033 1.033 0 0 0-1.254.329 1.513 1.513 0 0 1-.621.177.355.355 0 1 0-.519-.177 1.2 1.2 0 0 1-.558 0c-.038-.02.116-.225.116-.225a2.432 2.432 0 0 1-.571-.115c-.306-.1-.468-.387-.546-.4s-.424.095-.587.086a1.873 1.873 0 0 1-1.49-.8 1.622 1.622 0 0 1 .78-2.311c1.013-.537 1.548-.164 1.652.147s-.043.476-.052.624a.514.514 0 0 0 .381.414 4.731 4.731 0 0 0 1.987-.97c1.043-.691 3.353-3.686 5.032-4.659 1.997-1.164 3.843-.574 3.807 2.184zm-8.529 4.578l-.459.4a3.653 3.653 0 0 0 .548-.352c.162-.16-.103-.053-.103-.053zm.883-.393l-.372.492a2.569 2.569 0 0 0 .471-.471c.107-.202-.114-.026-.114-.026zm.684-.369l-.324.468a3.38 3.38 0 0 0 .419-.428c.146-.213-.111-.045-.111-.045zm.624-.254l-.352.488a2.343 2.343 0 0 0 .444-.466c.184-.287-.107-.027-.107-.027zm.769-.464l-.372.514a2.679 2.679 0 0 0 .459-.456c.166-.255-.101-.062-.101-.062zm.662-.4l-.307.554a3.72 3.72 0 0 0 .416-.532c.164-.301-.123-.028-.123-.028zm.779-.494l-.272.494a5.305 5.305 0 0 0 .382-.494c.168-.277-.125-.006-.125-.006zm.766-.381l-.321.572a2.631 2.631 0 0 0 .4-.543c.153-.317-.095-.035-.095-.035zm.765-.528l-.268.528s.18-.229.359-.5-.106-.034-.106-.034zm.724-.415l-.168.415a2.744 2.744 0 0 0 .28-.415c.093-.213-.127-.005-.127-.005zm-83.244-9.757c.014-.069.032-.151.058-.243.054-.194.153-.381.147-.39a1.027 1.027 0 0 0-.739.352 1.622 1.622 0 0 0-.269.462 1.229 1.229 0 0 1 .788-.187zm.486.165a1.285 1.285 0 0 1 .206.145 3.364 3.364 0 0 1 .184-.3c.113-.167.266-.312.265-.321a1.01 1.01 0 0 0-.812.093 1.66 1.66 0 0 0-.286.22 1.423 1.423 0 0 1 .158.035 1.373 1.373 0 0 1 .27.123zm.655.73a3.439 3.439 0 0 1 .272-.26c.153-.13.34-.231.34-.242a1.022 1.022 0 0 0-.808-.121 1.382 1.382 0 0 0-.21.076 1.939 1.939 0 0 1 .391.541zm.032.064a2.966 2.966 0 0 1 .213.613c.064-.024.141-.049.228-.073.194-.055.405-.069.408-.078a1.016 1.016 0 0 0-.684-.448q-.099-.017-.18-.02zm.228.681a3.455 3.455 0 0 1 .073.659c.043 0 .086.008.135.014.2.023.4.092.407.086a1.02 1.02 0 0 0-.459-.678 1.551 1.551 0 0 0-.171-.087zm-.168 21.322a1.806 1.806 0 0 1-.024.124c.057 0 .118.009.187.017.2.025.4.092.408.086a1.018 1.018 0 0 0-.462-.676c-.034-.02-.069-.038-.1-.055a1.7 1.7 0 0 1-.024.498zm-.009-.593c.07-.043.164-.1.278-.151.18-.089.387-.139.389-.148a1.014 1.014 0 0 0-.753-.321c-.061 0-.118.009-.173.017a1.573 1.573 0 0 1 .243.597zm-.33-.7l.04.052a3.182 3.182 0 0 1 .242-.283c.139-.147.314-.266.312-.275a1.012 1.012 0 0 0-.817-.037 1.667 1.667 0 0 0-.246.125 2 2 0 0 1 .453.411zm-.531-.456c.034-.076.081-.173.145-.288.1-.174.239-.333.236-.343a1.018 1.018 0 0 0-.8.164 1.7 1.7 0 0 0-.271.252 1.53 1.53 0 0 1 .674.206zm-1.078-.167a1 1 0 0 1 .349-.049 3.212 3.212 0 0 1 .05-.411c.037-.2.119-.393.113-.4a1 1 0 0 0-.705.413 1.043 1.043 0 0 0-.147.681.707.707 0 0 1 .324-.24zm-5.725.245a6.5 6.5 0 0 1-.052.776.756.756 0 0 0 .246.665c.04.014.335-.335.335-.335a1.511 1.511 0 0 0-.086.676 1.039 1.039 0 0 0 .3.595 3.51 3.51 0 0 0 .307-.569 3.341 3.341 0 0 0 .113.748c.1.327.283.494.338.494s.138-.476.138-.476a2.089 2.089 0 0 0 .3.656 1.084 1.084 0 0 0 .586.439 3.016 3.016 0 0 0-.008-.54 1.731 1.731 0 0 0 .447.584.834.834 0 0 0 .681.22c.041-.037-.185-.512-.185-.512a1.864 1.864 0 0 0 .639.428 1.125 1.125 0 0 0 .632.029c.032-.012-.075-.315-.075-.315a2.433 2.433 0 0 0 1.9-.388 1.9 1.9 0 0 0 .731-2.753c-.691-.837-1.794-.834-1.952-.159s.147 1.283-.584 1.372-1.646-.837-1.77-1.534.46-1.576.344-2.555a3.979 3.979 0 0 0-2.545-3.015 14.852 14.852 0 0 0-2.441-.924c-.311.336-.545.564-.627.646a6.548 6.548 0 0 1 .286 2.853 4.753 4.753 0 0 1 1.888.953 5.073 5.073 0 0 1 1.162 1.266 5.833 5.833 0 0 0-.531-.61l.052.395-.125-.468a7.168 7.168 0 0 0-.243-.234l.081.511-.187-.606a6.976 6.976 0 0 0-.226-.194l-.049-.04.125.61-.222-.684a2.817 2.817 0 0 0-.343-.226l.133.538-.236-.6a3.894 3.894 0 0 0-.373-.19l.153.551-.269-.6a5.182 5.182 0 0 0-.315-.129l.168.659-.3-.707c-.179-.066-.3-.1-.358-.119a5.832 5.832 0 0 1-.15.756 4.323 4.323 0 0 1-.531 1.245 7.707 7.707 0 0 1 1.64.187 2.342 2.342 0 0 1 1.037.624zm.965.5a4.684 4.684 0 0 0 1.444 1.666 4.763 4.763 0 0 0 2.507.849 4.346 4.346 0 0 1-4.035-2.557s-.021-.133.068.033zM.646 46.649a3.313 3.313 0 0 0-.465.6.728.728 0 0 0-.127.584c.038.04.441-.226.441-.226a2.061 2.061 0 0 0-.271.67 1.086 1.086 0 0 0 .083.727c.031.017.387-.376.387-.376a1.741 1.741 0 0 0-.118.726.829.829 0 0 0 .307.645c.055.006.245-.486.245-.486a1.883 1.883 0 0 0 .128.76 1.125 1.125 0 0 0 .411.479c.031.014.179-.271.179-.271a4.252 4.252 0 0 0 2.287.8 1.9 1.9 0 0 0 2.082-1.944c-.139-1.075-1.075-1.658-1.568-1.172s-.558 1.164-1.225.852-.312-1.765.381-2.856c.719-1.133 2.585-1.091 3.253-3.6a6.359 6.359 0 0 0-.139-3.686 18.49 18.49 0 0 0 1.9-2.155 4.018 4.018 0 0 1-.216-.228 1.868 1.868 0 0 1-.257-.419c-.031.223-.066.232-.1.24h-.022a1.315 1.315 0 0 1-.592-.436 1.548 1.548 0 0 1-.216-.37c-.064.3-.106.3-.147.306h-.008c-.1 0-.3-.142-.511-.451a2.092 2.092 0 0 1-.252-.543c-.1.269-.121.275-.154.281h-.017a1.087 1.087 0 0 1-.525-.457 1.933 1.933 0 0 1-.213-.465c-.087.26-.13.265-.165.269h-.009c-.106 0-.361-.272-.488-.563a1.414 1.414 0 0 1-.084-.584c-.191.254-.236.257-.263.257h-.011a2.011 2.011 0 0 1 .141-2.987 12.393 12.393 0 0 1 1.377-1.022 3.368 3.368 0 0 1 1.808.43 16.076 16.076 0 0 1 2.947 2.631 5.114 5.114 0 0 0 .064-.525c.187-2.782-2.475-4.015-3.263-4.318-1.5.679-2.824-.095-2.726-1.475a1.652 1.652 0 0 0 2.51 1.4 9.165 9.165 0 0 1 1-.5c.315-.1.785.41.918.439s.583-.5.593-.722-.1-.317-.5-.281-1.016.121-1.276.115a.405.405 0 0 1-.444-.433 3.456 3.456 0 0 1 .421-1.453c.191-.243.425.306.779.5a1.463 1.463 0 0 0 2.187-.749.532.532 0 0 0 .017-.242.383.383 0 0 0-.231-.2c-.1-.026-.232.061-.234.028-.006-.207.389-.083.448.079 0 0 .237-.358.023-.491s-1.673-.473-1.811-.542a4.566 4.566 0 0 0-2.508-.925 1.22 1.22 0 0 1 .037.148.519.519 0 0 0 .014.057.5.5 0 0 0 .093.156l-.072.021-1.146.422-.034.1a1.1 1.1 0 0 1-.474-.942.58.58 0 0 1 .032-.107 3.636 3.636 0 0 0-.575-.116 2.246 2.246 0 0 0-1.045.057 2.31 2.31 0 0 0 .266.375 3.328 3.328 0 0 0-.826.052 1.547 1.547 0 0 0-.7.277c-.023.035.387.3.387.3a2.872 2.872 0 0 0-.652.242 1.45 1.45 0 0 0-.549.462 2.366 2.366 0 0 0 .456.19 4.626 4.626 0 0 0-.56.324c-.236.167-.535.508-.508.554a2.341 2.341 0 0 0 .514.1 2.193 2.193 0 0 0-.515.49 1.169 1.169 0 0 0-.246.56 2.762 2.762 0 0 0 .508-.034 3.111 3.111 0 0 0-.462.623 1.522 1.522 0 0 0-.15.693 4.144 4.144 0 0 0 .6-.179 3.4 3.4 0 0 0-.4.756 1.34 1.34 0 0 0-.1.743 3.315 3.315 0 0 0 .512-.317 2.024 2.024 0 0 0-.258.766 1.557 1.557 0 0 0 .026.808c.034.023.43-.356.43-.356a4.819 4.819 0 0 0-.093.912c0 .483.133.71.168.71a2.911 2.911 0 0 0 .283-.4 3.388 3.388 0 0 0 .046.785c.075.37.167.549.231.543s.277-.416.277-.416a3.682 3.682 0 0 0 .1.792c.087.326.262.587.32.564a1.37 1.37 0 0 0 .225-.277 2.968 2.968 0 0 1 .323.8 8.513 8.513 0 0 1-.6 2.527c-.369.645-1.175.967-1.776 1.744a3.375 3.375 0 0 0-.821 2.232c.093.075.442-.031.624-.093a4.523 4.523 0 0 1 .746-1.626 6.512 6.512 0 0 0-.635 1.586 4.622 4.622 0 0 0-.026 1.562c.2 1.263.61 1.306.59 2.2a4.34 4.34 0 0 1-.144.961 6.171 6.171 0 0 1-.6.5.758.758 0 0 0-.315.635 1.92 1.92 0 0 0 .474.014 1.512 1.512 0 0 0-.549.4 1.032 1.032 0 0 0-.231.623 3.558 3.558 0 0 0 .603-.177zm1.2-19.767a3.948 3.948 0 0 1 .095-.719c.078-.281.1.057.1.057zm0 2.357v.572a2.94 2.94 0 0 1-.125-.572c-.028-.238.11-.009.11-.009zm.191-4l-.286.613a3.986 3.986 0 0 1 .19-.675c.102-.282.081.057.081.057zm.128 1.857l-.06.678a5.919 5.919 0 0 1-.035-.705c.002-.278.08.021.08.021zm.158 3.676s-.075-.352-.1-.615.1 0 .1 0zm.155-2.227a5.5 5.5 0 0 1-.1-.771c-.012-.36.1 0 .1 0zm5.34-5.621a1.142 1.142 0 0 1 .485.061c.234.084.574.387.644.4a1.112 1.112 0 0 0 .127 0c.018 0 .02.078-.031.081a.425.425 0 0 1-.128-.031.745.745 0 0 1-.69.1.559.559 0 0 1-.286-.557.445.445 0 0 1-.072-.012c-.048-.018-.079-.042-.065-.048zm.7 5.76l.277.156a1.369 1.369 0 0 1-.363-.093c-.224-.089.074-.069.074-.069zm-.863.041l.381.255a1.735 1.735 0 0 1-.457-.208c-.202-.138.064-.053.064-.053zm-.9-.139l.482.367a5.437 5.437 0 0 1-.557-.3c-.186-.125.065-.073.065-.073zm-.854-.136l.338.311a1.74 1.74 0 0 1-.421-.277c-.176-.165.074-.036.074-.036zm-.841-.549l.3.644a4.832 4.832 0 0 1-.392-.583c-.145-.264.082-.067.082-.067zm1.606 11.707s-.3-.362-.441-.558.08-.073.08-.073zm.035.921a7.6 7.6 0 0 1-.485-.606c-.113-.182.086-.095.086-.095zm-.035.756s-.158-.19-.369-.483.066-.052.066-.052zm-.095.756a3.9 3.9 0 0 1-.413-.509c-.206-.3.058-.122.058-.122zm-.21.635s-.173-.22-.312-.433.078-.06.078-.06zm-.506.214l.208.537a4.829 4.829 0 0 1-.321-.5c-.126-.233.104-.044.104-.044zm-.411.486l.164.447s-.154-.248-.251-.447.077-.006.077-.006zm-.514.465l.1.48a5.1 5.1 0 0 1-.216-.48c-.057-.162.107-.006.107-.006zm-.39-16.275l.156.667a3.385 3.385 0 0 1-.274-.667c-.069-.271.108-.006.108-.006zm-.4 2.19l.147.563a4.58 4.58 0 0 1-.225-.532c-.111-.304.071-.039.071-.039zm-.078-2.66l.078.678s-.124-.407-.187-.7.102.016.102.016zm-.892-.5s.024-.4.076-.69.106.075.106.075zm.092-1.358l-.281.613s.078-.324.19-.673.084.056.084.056zm-.372 5.548l.069.6a5.293 5.293 0 0 1-.18-.6c-.069-.278.104-.005.104-.005zm.021-2.242l.069.691s-.1-.3-.2-.691.125-.005.125-.005zm-.07-3.523s.118-.245.263-.517.066.084.066.084zm.606-1.332l-.467.466s.2-.263.4-.558.06.087.06.087zm.191 3.471a4.566 4.566 0 0 1-.119-.589c-.028-.255.119.026.119.026zm-.191 4.266l.1.736a5.3 5.3 0 0 1-.2-.736c-.059-.308.093-.005.093-.005zm0-2.267l.1.682a5.994 5.994 0 0 1-.21-.682c-.065-.265.103-.005.103-.005zM1.786 39.426a2.611 2.611 0 0 1 .973-1.875c.285-.191.109.08.109.08a2.485 2.485 0 0 0-1.089 1.789zm-.138 5.892s.145-.177.09-.038a5.7 5.7 0 0 0-.379 4.043 4.964 4.964 0 0 1 .282-4.011zm9.264-12.87a1.959 1.959 0 0 0 .512.307.963.963 0 0 0 .659.035 3.779 3.779 0 0 0-.3-.512 3.22 3.22 0 0 0 .892.314.718.718 0 0 0 .626-.139c.017-.038-.269-.381-.269-.381a1.79 1.79 0 0 0 .7-.073 1.6 1.6 0 0 0 .815-.518 3.293 3.293 0 0 0-.557-.249 2.289 2.289 0 0 0 .915-.225 1.3 1.3 0 0 0 .526-.546 4.289 4.289 0 0 0-.516-.119 2.132 2.132 0 0 0 .753-.381 1.286 1.286 0 0 0 .369-.511 2.028 2.028 0 0 0-.4 0 1.935 1.935 0 0 0 .537-.5c.187-.291.229-.522.193-.551s-.352.067-.352.067a1.6 1.6 0 0 1 .032-.6c.081-.327.554-.384.924-1.28a2.731 2.731 0 0 0-.8-3.015 1.2 1.2 0 0 0-1.759.74 3.156 3.156 0 0 0 .593 1.615.514.514 0 0 1 .049.6 6.39 6.39 0 0 1-.938.652c-.329.19-2.149 1.75-2.23 1.781a8.276 8.276 0 0 0-2.525-.271 3.987 3.987 0 0 1 1.586 2.8 2.528 2.528 0 0 0 1.7-.225 8.916 8.916 0 0 0 2.079-1.609s-1.8 2.333-3.767 1.953a4.066 4.066 0 0 1 0 .491c-.015.103-.029.227-.047.35zM6.631 49.267c.194-.05.407-.058.41-.067a1.007 1.007 0 0 0-.671-.465 1.542 1.542 0 0 0-.277-.024 1.994 1.994 0 0 1 .176.6l.008.066a2.8 2.8 0 0 1 .354-.108zm-1.8-1.32a.659.659 0 0 1 .226-.04.936.936 0 0 1 .506.17 2.591 2.591 0 0 1 .262-.324c.136-.148.309-.271.307-.28a1.011 1.011 0 0 0-.817-.024 1.044 1.044 0 0 0-.489.499zm1.511.532c.176-.1.379-.156.382-.165a1.017 1.017 0 0 0-.766-.288 1.6 1.6 0 0 0-.366.07 1.548 1.548 0 0 1 .471.551 3.053 3.053 0 0 1 .274-.165zm-.555 2.2c.046.034.1.07.15.115.156.126.291.289.3.288a1.013 1.013 0 0 0-.031-.817 1.267 1.267 0 0 0-.058-.1 1.722 1.722 0 0 1-.274.425 2.806 2.806 0 0 1-.092.094zm.4-.6c.081 0 .188.006.315.02.2.021.4.087.408.081a1.013 1.013 0 0 0-.467-.671 1.487 1.487 0 0 0-.156-.08 1.589 1.589 0 0 1-.109.656zM5.73 23.151l.688-.265a4.952 4.952 0 0 0-.054-.167c-.081-.037-.288-.135-.281-.162l.248.064c-.107-.3-.165-.393-.54-.476.425.009.509.21.633.5.049.115.08.206.08.206l.385-.148a.555.555 0 0 1-.107-.182.8.8 0 0 0-.369-.609c-.32-.17-1.043-.125-1.129.363s.436.881.436.881zm2.366 3.506a1.665 1.665 0 0 1 .827-.376 7.125 7.125 0 0 1 1.722.306c.577.06 1.006-.214 1-.655a.667.667 0 0 0-.436-.644c-.05.026.063.269-.038.546s-.382.314-.832.278-1.081-.395-1.545-.418a1.794 1.794 0 0 0-.994.33 1.315 1.315 0 0 0-.021.268c.005.237.103.349.308.37zm1.676-1.026h-.034a3.05 3.05 0 0 0 .306.358.746.746 0 0 0 .207-.245 1.247 1.247 0 0 0 .087-.217 1.548 1.548 0 0 1-.575.109zm-1.5-2.611l-.046-.015a.28.28 0 0 0-.04.142.29.29 0 0 0 .538.15 2.234 2.234 0 0 0-.46-.272zm8.353 10.823c.083-.184.208-.355.2-.362a1.01 1.01 0 0 0-.785.232 1.612 1.612 0 0 0-.35.439 1.049 1.049 0 0 1 .225-.023 1.7 1.7 0 0 1 .557.1 2.946 2.946 0 0 1 .145-.381zm1.1.249a1.015 1.015 0 0 0-.818-.032 1.614 1.614 0 0 0-.353.2 2.953 2.953 0 0 1 .323.147 2.408 2.408 0 0 1 .324.208c.052-.066.121-.15.213-.248.13-.14.304-.26.304-.27zm.508 1.779c.2-.031.41-.018.415-.028a1.011 1.011 0 0 0-.624-.528 1.562 1.562 0 0 0-.277-.05 1.623 1.623 0 0 1 .122.32 1.449 1.449 0 0 1 .052.349c.074-.015.178-.038.305-.058zm-.184-.873c.174-.1.376-.164.378-.173a1.01 1.01 0 0 0-.772-.269 1.636 1.636 0 0 0-.411.095 1.906 1.906 0 0 1 .477.563 3.256 3.256 0 0 1 .322-.211zm-.281 1.663c.086.011.2.029.333.06.2.046.389.135.4.13a1.023 1.023 0 0 0-.384-.722 1.7 1.7 0 0 0-.191-.125 1.515 1.515 0 0 1-.165.662zm-9.924-6.634c1.678.973 3.989 3.968 5.032 4.659a4.721 4.721 0 0 0 1.985.97.509.509 0 0 0 .381-.414c-.009-.148-.156-.312-.052-.624s.641-.684 1.653-.147a1.621 1.621 0 0 1 .779 2.311 1.871 1.871 0 0 1-1.49.8c-.164.009-.509-.1-.587-.086s-.24.3-.545.4a2.437 2.437 0 0 1-.572.115s.154.205.118.225a1.2 1.2 0 0 1-.558 0 1.883 1.883 0 0 1-.658-.268 1.891 1.891 0 0 1 .138.445 1.5 1.5 0 0 1-.619-.177 1.806 1.806 0 0 1-.58-.388 1.843 1.843 0 0 1-.038.388 1.849 1.849 0 0 1-.638-.329 2.464 2.464 0 0 1-.441-.485s.043.471 0 .485a1.268 1.268 0 0 1-.575-.384 1.88 1.88 0 0 1-.392-.639 1.945 1.945 0 0 1-.092.476 1.4 1.4 0 0 1-.526-.43 2.444 2.444 0 0 1-.274-.6 2.241 2.241 0 0 1-.112.561 1.527 1.527 0 0 1-.538-.459 2.03 2.03 0 0 1-.35-.681s-.032.468-.078.479a1.274 1.274 0 0 1-.543-.408 1.875 1.875 0 0 1-.291-.586s-.084.49-.133.5-.236-.1-.457-.421a2.177 2.177 0 0 1-.3-.74 3.607 3.607 0 0 1-.18.451 1.078 1.078 0 0 1-.468-.425 2.058 2.058 0 0 1-.263-.684s-.128.451-.18.457a1.05 1.05 0 0 1-.427-.522 1.8 1.8 0 0 1-.058-.8s-.3.436-.355.43a1.794 1.794 0 0 1-.534-1.266c-.039-2.758 1.803-3.348 3.811-2.184zm4.622 6.813a3.736 3.736 0 0 0 .548.352l-.459-.4s-.274-.105-.095.056zm-.893-.422a2.568 2.568 0 0 0 .471.471l-.372-.492s-.226-.172-.105.025zm-.679-.35a3.5 3.5 0 0 0 .419.428l-.324-.468s-.262-.164-.102.044zm-.621-.272a2.344 2.344 0 0 0 .444.466l-.35-.488s-.295-.256-.101.026zm-.763-.427a2.62 2.62 0 0 0 .459.456l-.373-.514s-.275-.189-.093.062zm-.684-.439a3.767 3.767 0 0 0 .415.532l-.307-.554s-.295-.268-.115.026zm-.782-.515a5.308 5.308 0 0 0 .382.494l-.272-.494s-.298-.267-.116.004zm-.736-.352a2.631 2.631 0 0 0 .4.543l-.32-.572s-.253-.278-.086.033zm-.777-.531c.18.272.359.5.359.5l-.268-.528s-.276-.24-.097.032zm-.743-.441a2.822 2.822 0 0 0 .281.415l-.17-.415s-.227-.203-.117.005zm46.635-33.1a4.34 4.34 0 0 0-2.252.688l.323.315.323.315.156.474.156.474h-.97l-.329-.338-.329-.338a3.5 3.5 0 0 0-.7 2.366 3.849 3.849 0 0 0 .858 2.226l.338-.379.338-.379h1.149V7.35a13.189 13.189 0 0 0-5.13 1.193 9.831 9.831 0 0 0-3.491 2.805 5.85 5.85 0 0 0-.566.876 7.7 7.7 0 0 0-.441 1.02c-3.393-1.075-5.611-.266-6.981.812a6.4 6.4 0 0 0-1.894 2.427 6.27 6.27 0 0 0-5.335 3.183 9.461 9.461 0 0 0-1.19 3.049 10.489 10.489 0 0 0 .11 3.793 11.456 11.456 0 0 0 .906 2.635l.465 2.828.467 2.828h21.182a4.109 4.109 0 0 0 1.218 1.445 2.772 2.772 0 0 0 1.623.542 2.772 2.772 0 0 0 1.623-.542 4.093 4.093 0 0 0 1.218-1.445H76.45l.466-2.828.467-2.828a11.469 11.469 0 0 0 .9-2.635 10.45 10.45 0 0 0 .113-3.793 9.488 9.488 0 0 0-1.192-3.049 6.27 6.27 0 0 0-5.332-3.183 6.4 6.4 0 0 0-1.894-2.427c-1.369-1.078-3.588-1.888-6.979-.812a7.913 7.913 0 0 0-.442-1.02 5.617 5.617 0 0 0-.566-.876 9.818 9.818 0 0 0-3.489-2.795 13.183 13.183 0 0 0-5.13-1.193V5.425h1.149l.338.379.34.379a3.858 3.858 0 0 0 .857-2.226 3.506 3.506 0 0 0-.694-2.366l-.329.338-.329.338h-.971l.156-.474.158-.474.321-.315.323-.315a4.34 4.34 0 0 0-2.252-.688m0 8.362c4.2 0 7.126 1.2 8.7 3.553a8.42 8.42 0 0 1 1.158 3.247 1.476 1.476 0 0 0 .237 2.68c.008.368.008.742 0 1.115a1.754 1.754 0 0 0-.222 3.289c-.041.367-.084.73-.133 1.084h-.041a2.332 2.332 0 0 0-.76 4.537c-.122.563-.228 1-.3 1.277h-5.979a3.22 3.22 0 0 0-2.674-1.692v1.153-1.158a3.222 3.222 0 0 0-2.675 1.692h-5.978c-.07-.275-.176-.714-.3-1.277a2.332 2.332 0 0 0-.759-4.537h-.043a53.604 53.604 0 0 1-.133-1.084 1.754 1.754 0 0 0-.222-3.289 25.903 25.903 0 0 1 0-1.115 1.475 1.475 0 0 0 .237-2.68 8.4 8.4 0 0 1 1.159-3.247c1.575-2.357 4.5-3.553 8.7-3.553m-24.039 20.79a10.324 10.324 0 0 1-1.124-6.3s1.164-5.331 5.384-5.531c-.05.136-.1.271-.142.413a8.908 8.908 0 0 0-.387 2.259 1.476 1.476 0 0 0 .136 2.831c.066.465.144.927.234 1.375a1.752 1.752 0 0 0 .863 3.224c.233.71.456 1.3.624 1.733zm6.836 3.96l-1.091-1.091 1.091-1.089 1.089 1.089zm-.162-3.96a27.488 27.488 0 0 1-.769-1.952 1.754 1.754 0 0 0-.855-3.286h-.049a19.141 19.141 0 0 1-.191-1.185 1.476 1.476 0 0 0-.075-2.73 8.592 8.592 0 0 1 .361-1.871s1.242-6.258 8.13-4.018a21.62 21.62 0 0 0-.2.933 1.479 1.479 0 0 0-.275 2.7c-.015.434-.018.872-.014 1.306a1.754 1.754 0 0 0 .211 3.272c.054.473.115.928.18 1.357a2.33 2.33 0 0 0 .895 4.292c.116.462.223.863.312 1.175zm8.388 4.65l-1.78-1.78 1.78-1.779 1.78 1.779zm9.046-5.181c1.262.079 2.268 1.624 2.268 3.535s-1.006 3.457-2.268 3.535h-.1c-1.262-.078-2.268-1.624-2.268-3.535s1.006-3.455 2.268-3.535zm8.948 5.181l-1.78-1.78 1.78-1.779 1.78 1.779zm.73-4.65c.087-.312.194-.713.311-1.175a2.33 2.33 0 0 0 .9-4.292c.064-.428.125-.884.179-1.357a1.754 1.754 0 0 0 .213-3.272c0-.434 0-.872-.015-1.306a1.478 1.478 0 0 0-.275-2.7 21.62 21.62 0 0 0-.2-.933c6.889-2.239 8.13 4.018 8.13 4.018a8.6 8.6 0 0 1 .361 1.871 1.476 1.476 0 0 0-.075 2.73c-.05.4-.115.8-.191 1.185h-.049a1.754 1.754 0 0 0-.855 3.286 28.354 28.354 0 0 1-.768 1.952zm7.5 3.96l-1.091-1.091 1.091-1.089 1.089 1.089zm6.836-3.96h-5.589c.168-.43.392-1.023.624-1.733a1.752 1.752 0 0 0 .864-3.224c.09-.448.168-.91.232-1.375a1.476 1.476 0 0 0 .138-2.831 8.977 8.977 0 0 0-.387-2.259 6.693 6.693 0 0 0-.144-.413c4.222.2 5.384 5.531 5.384 5.531a10.326 10.326 0 0 1-1.128 6.304zm-38.152 23.34h-5.895v-.6c.174-.015.387-.04.641-.076a2.19 2.19 0 0 0 .517-.115.814.814 0 0 0 .407-.314.962.962 0 0 0 .122-.506v-8.129l-3.741 9.56h-.965q-.069-.252-.343-1t-.441-1.2l-2.752-7.475v6.615a6.231 6.231 0 0 0 .127 1.445 1.325 1.325 0 0 0 .41.725 2 2 0 0 0 .687.306 4.954 4.954 0 0 0 .693.168v.6h-4.676v-.6c.128-.015.337-.049.626-.1a1.736 1.736 0 0 0 .708-.278 1.124 1.124 0 0 0 .415-.725 7.6 7.6 0 0 0 .107-1.453v-5.389a2.357 2.357 0 0 0-.122-.817 1.173 1.173 0 0 0-.369-.517 1.566 1.566 0 0 0-.629-.306 4.632 4.632 0 0 0-.652-.092v-.6h5.012l2.681 7.166 2.261-5.815a7.893 7.893 0 0 0 .222-.768 4.384 4.384 0 0 0 .115-.583h4.818v.6a4.56 4.56 0 0 0-.514.061 3.971 3.971 0 0 0-.512.122.612.612 0 0 0-.4.313 1.175 1.175 0 0 0-.095.476v7.7a1.029 1.029 0 0 0 .095.463.79.79 0 0 0 .4.326 2.32 2.32 0 0 0 .5.13c.232.041.413.069.54.084zm12.925 0h-5.926v-.6a7.469 7.469 0 0 0 .971-.148c.372-.079.558-.179.558-.3a.791.791 0 0 0-.012-.139.909.909 0 0 0-.064-.207l-.928-2.253h-3.755c-.086.21-.182.454-.286.736s-.194.531-.271.751a3.987 3.987 0 0 0-.171.621 2.458 2.458 0 0 0-.026.268c0 .164.124.3.37.418a4.038 4.038 0 0 0 1.237.249v.6h-4.462v-.6a4.019 4.019 0 0 0 .572-.079 1.571 1.571 0 0 0 .5-.18 1.938 1.938 0 0 0 .532-.453 2.333 2.333 0 0 0 .364-.636l1.782-4.315 1.975-4.768h1.533q1.5 3.694 2.354 5.84t1.449 3.558a1.751 1.751 0 0 0 .254.418 1.608 1.608 0 0 0 .436.356 1.734 1.734 0 0 0 .5.184 3.363 3.363 0 0 0 .514.076zm-5.716-4.4l-1.579-3.94-1.553 3.933zm18.3 4.4h-4.179q-1.081-1.654-1.8-2.637t-1.78-2.268h-.42v3.3a.98.98 0 0 0 .1.468.8.8 0 0 0 .395.321 2.781 2.781 0 0 0 .456.127c.208.043.385.072.534.087v.6h-5.8v-.6c.148-.015.344-.037.586-.064a2.273 2.273 0 0 0 .519-.1.736.736 0 0 0 .39-.31 1.025 1.025 0 0 0 .1-.479v-7.674a1.093 1.093 0 0 0-.084-.459.734.734 0 0 0-.405-.323 3.421 3.421 0 0 0-.58-.168c-.222-.046-.4-.08-.525-.1v-.6h6.1a6.1 6.1 0 0 1 3.108.639 2.112 2.112 0 0 1 1.063 1.935 2.561 2.561 0 0 1-.656 1.837 4.385 4.385 0 0 1-2 1.084q.521.675 1.216 1.563t1.444 1.817q.239.3.649.733a1.894 1.894 0 0 0 .723.532 3.18 3.18 0 0 0 .45.092c.18.026.311.041.387.046zm-5.22-8.087a1.942 1.942 0 0 0-.61-1.591 2.66 2.66 0 0 0-1.736-.5h-.6v4.554h.581a2.441 2.441 0 0 0 1.748-.59 2.476 2.476 0 0 0 .613-1.878zm11.238 8.087h-6.037v-.6c.138-.009.341-.024.609-.046a2.073 2.073 0 0 0 .555-.092.73.73 0 0 0 .388-.3.986.986 0 0 0 .1-.479v-7.712a1 1 0 0 0-.1-.459.721.721 0 0 0-.392-.323 3.476 3.476 0 0 0-.543-.158 6.162 6.162 0 0 0-.621-.11v-.6h6.033v.6a31.39 31.39 0 0 0-.575.064 3.329 3.329 0 0 0-.583.119.623.623 0 0 0-.4.31 1.094 1.094 0 0 0-.1.479v7.7a1 1 0 0 0 .1.471.748.748 0 0 0 .395.318 2.7 2.7 0 0 0 .532.135 5.629 5.629 0 0 0 .626.079zm11.06-9.665a5.383 5.383 0 0 1 1.277 1.777 5.724 5.724 0 0 1 .471 2.377 6.458 6.458 0 0 1-.4 2.261 5.24 5.24 0 0 1-1.15 1.848 5.617 5.617 0 0 1-1.855 1.253 7.013 7.013 0 0 1-4.783.058 5.547 5.547 0 0 1-1.863-1.135 5.3 5.3 0 0 1-1.265-1.77 5.615 5.615 0 0 1-.468-2.323 6.177 6.177 0 0 1 .457-2.418 5.518 5.518 0 0 1 1.253-1.859 5.45 5.45 0 0 1 1.874-1.17 6.738 6.738 0 0 1 4.6-.011 5.621 5.621 0 0 1 1.848 1.107zm-1.97 7.786a5.778 5.778 0 0 0 .5-1.582 11.72 11.72 0 0 0 .153-2 12.472 12.472 0 0 0-.133-1.839 5.88 5.88 0 0 0-.457-1.594 3.016 3.016 0 0 0-.873-1.121 2.156 2.156 0 0 0-1.357-.422 2.282 2.282 0 0 0-2.108 1.317 7.856 7.856 0 0 0-.72 3.72 11.2 11.2 0 0 0 .158 1.927 5.7 5.7 0 0 0 .494 1.582 2.87 2.87 0 0 0 .873 1.063 2.174 2.174 0 0 0 1.3.379 2.2 2.2 0 0 0 1.3-.382 2.686 2.686 0 0 0 .866-1.054zM18.99 67.696h-5.898v-.6c.174-.015.387-.041.641-.076a2.367 2.367 0 0 0 .517-.115.826.826 0 0 0 .407-.315.959.959 0 0 0 .122-.506v-8.125l-3.741 9.558h-.966c-.047-.168-.161-.5-.343-1s-.327-.9-.441-1.2l-2.752-7.473v6.604a6.21 6.21 0 0 0 .127 1.444 1.313 1.313 0 0 0 .41.725 1.988 1.988 0 0 0 .687.306 4.793 4.793 0 0 0 .693.17v.6H3.777v-.6c.127-.015.337-.05.624-.1a1.733 1.733 0 0 0 .71-.28 1.116 1.116 0 0 0 .414-.723 7.6 7.6 0 0 0 .107-1.453v-5.389a2.357 2.357 0 0 0-.122-.817 1.157 1.157 0 0 0-.369-.517 1.562 1.562 0 0 0-.629-.307 4.641 4.641 0 0 0-.652-.092v-.6h5.012l2.681 7.167 2.259-5.817a7.291 7.291 0 0 0 .223-.766 4.658 4.658 0 0 0 .115-.584h4.822v.6a4.972 4.972 0 0 0-.514.061 3.829 3.829 0 0 0-.514.124.608.608 0 0 0-.395.313 1.169 1.169 0 0 0-.095.476v7.7a1.02 1.02 0 0 0 .095.463.793.793 0 0 0 .395.327 2.465 2.465 0 0 0 .5.13c.232.04.411.069.54.084zm12.925 0h-5.926v-.6a7.269 7.269 0 0 0 .971-.15c.372-.079.558-.177.558-.3a.763.763 0 0 0-.012-.138.964.964 0 0 0-.064-.206l-.928-2.255h-3.755c-.086.209-.182.456-.286.736s-.194.532-.271.753a4.034 4.034 0 0 0-.171.62 2.156 2.156 0 0 0-.026.269c0 .164.124.3.37.418a4.034 4.034 0 0 0 1.237.249v.6H19.15v-.6a4.1 4.1 0 0 0 .572-.081 1.5 1.5 0 0 0 .5-.18 1.934 1.934 0 0 0 .532-.451 2.4 2.4 0 0 0 .364-.636l1.782-4.316q.892-2.161 1.972-4.769h1.533q1.5 3.694 2.354 5.841t1.449 3.556a1.691 1.691 0 0 0 .252.418 1.62 1.62 0 0 0 .437.356 1.731 1.731 0 0 0 .5.185 3.787 3.787 0 0 0 .514.076zm-5.716-4.4l-1.575-3.931-1.551 3.931zm11.518 4.7a6.364 6.364 0 0 1-2.238-.387 5.262 5.262 0 0 1-1.817-1.126 5.073 5.073 0 0 1-1.195-1.783 6.074 6.074 0 0 1-.437-2.337 6.141 6.141 0 0 1 .441-2.345 5.566 5.566 0 0 1 1.237-1.869 5.424 5.424 0 0 1 1.878-1.2 6.442 6.442 0 0 1 2.346-.425 5.728 5.728 0 0 1 1.647.222 6.824 6.824 0 0 1 1.257.5l.476-.422h.667l.069 3.971h-.676a6.972 6.972 0 0 0-1.378-2.674 2.6 2.6 0 0 0-1.961-.852 2.4 2.4 0 0 0-2.189 1.271 7.051 7.051 0 0 0-.749 3.565 8.293 8.293 0 0 0 .255 2.215 4.556 4.556 0 0 0 .67 1.479 2.709 2.709 0 0 0 1.049.855 3.223 3.223 0 0 0 1.34.274 3.269 3.269 0 0 0 1.91-.583 5.46 5.46 0 0 0 1.528-1.764l.659.4a6.619 6.619 0 0 1-.753 1.207 4.53 4.53 0 0 1-.973.916 5.055 5.055 0 0 1-1.338.659 5.636 5.636 0 0 1-1.729.225zm18.8-.3h-5.88v-.6l.56-.046a1.865 1.865 0 0 0 .506-.092.761.761 0 0 0 .39-.3.958.958 0 0 0 .107-.48V62.43h-4.645v3.663a.98.98 0 0 0 .112.468.745.745 0 0 0 .379.323 2.97 2.97 0 0 0 .5.13 4.979 4.979 0 0 0 .575.084v.6h-5.88v-.6c.127-.006.315-.021.563-.05a2.655 2.655 0 0 0 .541-.1.67.67 0 0 0 .382-.3 1.011 1.011 0 0 0 .107-.48v-7.7a.987.987 0 0 0-.095-.453.8.8 0 0 0-.395-.321 3.06 3.06 0 0 0-.583-.181 5.107 5.107 0 0 0-.522-.1v-.6h5.88v.6a5.212 5.212 0 0 0-.567.076c-.22.041-.389.08-.506.115a.613.613 0 0 0-.395.318 1.147 1.147 0 0 0-.1.465v3.249h4.645v-3.172a.931.931 0 0 0-.1-.453.82.82 0 0 0-.4-.321 2.963 2.963 0 0 0-.534-.173 4.706 4.706 0 0 0-.532-.1v-.6h5.88v.6a5.717 5.717 0 0 0-.552.066 4.175 4.175 0 0 0-.552.125.621.621 0 0 0-.39.315 1.081 1.081 0 0 0-.1.468v7.7a.99.99 0 0 0 .1.468.765.765 0 0 0 .39.323 2.7 2.7 0 0 0 .534.138c.232.04.422.066.571.076zm12.862 0h-5.926v-.6a7.287 7.287 0 0 0 .973-.15c.372-.079.558-.177.558-.3a.937.937 0 0 0-.012-.138.9.9 0 0 0-.066-.206l-.927-2.255h-3.755c-.087.209-.182.456-.286.736s-.194.532-.271.753a3.857 3.857 0 0 0-.171.62 2.252 2.252 0 0 0-.028.269q0 .245.372.418a4.023 4.023 0 0 0 1.237.249v.6h-4.462v-.6a4.05 4.05 0 0 0 .571-.081 1.505 1.505 0 0 0 .5-.18 1.956 1.956 0 0 0 .532-.451 2.437 2.437 0 0 0 .364-.636q.888-2.155 1.782-4.316t1.973-4.768h1.535q1.5 3.694 2.352 5.841t1.45 3.556a1.691 1.691 0 0 0 .252.418 1.62 1.62 0 0 0 .438.356 1.714 1.714 0 0 0 .5.185 3.8 3.8 0 0 0 .512.076zm-5.716-4.4l-1.574-3.931-1.551 3.931zm18.3 4.4h-4.174q-1.078-1.657-1.8-2.637t-1.78-2.27h-.421v3.3a.954.954 0 0 0 .1.468.791.791 0 0 0 .395.323 2.753 2.753 0 0 0 .456.125 5.033 5.033 0 0 0 .532.089v.6h-5.8v-.6c.147-.015.343-.037.586-.066a2.187 2.187 0 0 0 .517-.1.738.738 0 0 0 .392-.31 1.02 1.02 0 0 0 .1-.479v-7.672a1.1 1.1 0 0 0-.084-.46.744.744 0 0 0-.407-.321 3.282 3.282 0 0 0-.578-.17c-.222-.046-.4-.078-.525-.1v-.6h6.1a6.1 6.1 0 0 1 3.108.641 2.11 2.11 0 0 1 1.062 1.935 2.565 2.565 0 0 1-.655 1.835 4.37 4.37 0 0 1-2 1.085q.521.677 1.215 1.565t1.445 1.817q.239.3.649.731a1.892 1.892 0 0 0 .723.534 3.193 3.193 0 0 0 .448.092c.182.026.311.04.387.046zm-5.219-8.088a1.941 1.941 0 0 0-.61-1.589 2.663 2.663 0 0 0-1.736-.5h-.606v4.553h.583a2.434 2.434 0 0 0 1.748-.59 2.482 2.482 0 0 0 .625-1.88zm15.046-1.67a4.94 4.94 0 0 1 1.611 1.736 5.332 5.332 0 0 1 .613 2.657 5.016 5.016 0 0 1-.549 2.4 4.859 4.859 0 0 1-1.452 1.675 6.581 6.581 0 0 1-2.089.97 9.329 9.329 0 0 1-2.449.318h-5.48v-.6c.162-.006.367-.02.613-.046a1.991 1.991 0 0 0 .489-.092.732.732 0 0 0 .384-.312.97.97 0 0 0 .107-.471v-7.711a1.091 1.091 0 0 0-.1-.471.738.738 0 0 0-.392-.341 2.274 2.274 0 0 0-.616-.177c-.217-.031-.385-.05-.5-.061v-.6h5.792a9.049 9.049 0 0 1 1.985.239 6.124 6.124 0 0 1 2.037.88zm-1.563 7.8a4.492 4.492 0 0 0 .548-1.461 9.863 9.863 0 0 0 .173-1.95 7.881 7.881 0 0 0-.229-1.97 4.645 4.645 0 0 0-.675-1.519 3.074 3.074 0 0 0-1.109-.973 3.22 3.22 0 0 0-1.505-.346c-.179 0-.382 0-.61.012l-.509.018v8.257a1.478 1.478 0 0 0 .073.486.88.88 0 0 0 .249.372 1.2 1.2 0 0 0 .433.249 2.084 2.084 0 0 0 .67.089 3.193 3.193 0 0 0 1.487-.323 2.54 2.54 0 0 0 1.008-.951zm10.846 1.962H95.04v-.6l.61-.046a2.246 2.246 0 0 0 .555-.092.734.734 0 0 0 .387-.3.993.993 0 0 0 .1-.48v-7.711a1.025 1.025 0 0 0-.1-.46.725.725 0 0 0-.392-.321 3.367 3.367 0 0 0-.545-.158 7.017 7.017 0 0 0-.621-.112v-.6h6.033v.6c-.153.015-.344.037-.575.066a3.034 3.034 0 0 0-.581.119.626.626 0 0 0-.4.309 1.124 1.124 0 0 0-.1.48v7.7a.974.974 0 0 0 .1.471.749.749 0 0 0 .395.32 2.717 2.717 0 0 0 .532.133 5.664 5.664 0 0 0 .624.081zm-86.508 7.31h75.717"/></symbol><symbol viewBox="0 0 11 7" id="icon-dropdown-arrow" xmlns="http://www.w3.org/2000/svg"><path d="M9 0l1.343 1.482-5.171 4.689L0 1.482 1.343 0l3.829 3.471z"/></symbol><symbol viewBox="0 0 21 17" id="icon-link-arrow" xmlns="http://www.w3.org/2000/svg"><path d="M19.293 8l-6.647-6.646a.5.5 0 0 1 .708-.708l7.5 7.5a.5.5 0 0 1 0 .708l-7.5 7.5a.5.5 0 0 1-.708-.708L19.293 9H1a.5.5 0 0 1 0-1h18.293z"/></symbol><symbol viewBox="0 0 23 21" id="icon-search" xmlns="http://www.w3.org/2000/svg"><path d="M5.635.87l.066-.016c1.891-.462 3.964-.138 5.61.906a7.338 7.338 0 0 1 2.393 2.443 7.283 7.283 0 0 1 1.03 4.015 7.278 7.278 0 0 1-1.162 3.694l8.318 6.181c.286.248.27.688.112 1.003-.2.4-.502.773-.913.968l-.214.053c-.17.01-.355-.02-.488-.134l-7.854-6.803a7.318 7.318 0 0 1-3.592 1.918 7.292 7.292 0 0 1-6.795-2.113A7.328 7.328 0 0 1 .347 9.711a7.364 7.364 0 0 1 .11-3.914 7.272 7.272 0 0 1 1.761-2.955A7.347 7.347 0 0 1 5.635.87zm.017.635a6.731 6.731 0 0 0-2.404 1.234 6.652 6.652 0 0 0-1.983 2.64 6.717 6.717 0 0 0-.42 3.703 6.71 6.71 0 0 0 1.631 3.353 6.7 6.7 0 0 0 6.82 1.94 6.678 6.678 0 0 0 4.672-4.996 6.67 6.67 0 0 0-1.681-6.031 6.704 6.704 0 0 0-6.634-1.843zM2.806 11.11l.526-.336A4.902 4.902 0 0 0 6.1 12.858c1.173.343 2.495.185 3.524-.485.115.174.223.351.337.525-.648.419-1.4.672-2.168.74-1 .092-2.02-.129-2.905-.6a5.558 5.558 0 0 1-2.08-1.928z"/></symbol></svg>